<svg width="754" height="682" viewBox="0 0 754 682" fill="none" xmlns="http://www.w3.org/2000/svg">
<path d="M77.0286 366.275C77.0286 366.275 80.5423 464.701 171.384 530.296C262.226 595.891 388.069 600.597 489.964 606.83C591.86 613.063 670.125 560.877 681.918 482.01C693.71 403.144 615.852 379.997 573.613 290.218C531.374 200.44 535.129 170.923 445.75 115.708C356.371 60.4934 216.534 94.4024 143.26 188.996C69.9863 283.589 77.0286 366.275 77.0286 366.275Z" fill="#4CAAD2"/>
<path opacity="0.7" d="M77.0286 366.275C77.0286 366.275 80.5423 464.701 171.384 530.296C262.226 595.891 388.069 600.597 489.964 606.83C591.86 613.063 670.125 560.877 681.918 482.01C693.71 403.144 615.852 379.997 573.613 290.218C531.374 200.44 535.129 170.923 445.75 115.708C356.371 60.4934 216.534 94.4024 143.26 188.996C69.9863 283.589 77.0286 366.275 77.0286 366.275Z" fill="white"/>
<path d="M661.454 386.23H64.7535" stroke="#263238" stroke-width="1.08162" stroke-miterlimit="10"/>
<path d="M174.204 228.934C174.204 225.183 176.119 222.427 180.432 222.427C184.745 222.427 186.736 225.155 186.736 228.934V242.11C186.736 245.861 184.82 248.616 180.432 248.616C176.044 248.616 174.204 245.888 174.204 242.11V228.934ZM176.074 242.219C176.074 244.947 177.296 247.075 180.432 247.075C183.569 247.075 184.866 245.015 184.866 242.219V228.825C184.866 226.097 183.599 223.969 180.432 223.969C177.265 223.969 176.074 226.028 176.074 228.825V242.219Z" fill="#263238"/>
<path d="M189.706 228.934C189.706 225.183 191.622 222.427 195.919 222.427C200.217 222.427 202.223 225.155 202.223 228.934V242.11C202.223 245.861 200.323 248.616 195.919 248.616C191.516 248.616 189.706 245.888 189.706 242.11V228.934ZM191.576 242.219C191.576 244.947 192.798 247.075 195.919 247.075C199.041 247.075 200.353 245.015 200.353 242.219V228.825C200.353 226.097 199.101 223.969 195.919 223.969C192.737 223.969 191.576 226.028 191.576 228.825V242.219Z" fill="#263238"/>
<path d="M211.21 222.646C215.614 222.646 217.318 225.155 217.318 228.906V231.703C217.318 235.795 215.237 237.8 210.728 237.8H207.184V248.398H205.314V222.646H211.21ZM210.728 236.286C214.015 236.286 215.448 234.922 215.448 231.839V228.825C215.448 226.028 214.392 224.228 211.21 224.228H207.184V236.286H210.728Z" fill="#263238"/>
<path d="M232.126 228.865V229.411H230.332V228.756C230.332 226.028 229.201 223.969 226.11 223.969C223.018 223.969 221.872 226.001 221.872 228.715C221.872 234.976 232.157 235.085 232.157 242.178C232.157 245.888 230.377 248.616 226.019 248.616C221.661 248.616 219.881 245.888 219.881 242.178V240.814H221.676V242.178C221.676 244.906 222.852 246.925 225.989 246.925C229.126 246.925 230.287 244.933 230.287 242.178C230.287 235.999 220.002 235.89 220.002 228.715C220.002 224.855 221.872 222.359 226.034 222.318C230.196 222.277 232.126 225.155 232.126 228.865Z" fill="#263238"/>
<path d="M236.756 245.165V248.398H234.931V245.165H236.756Z" fill="#263238"/>
<path d="M241.883 245.165V248.398H240.059V245.165H241.883Z" fill="#263238"/>
<path d="M246.965 245.165V248.398H245.141V245.165H246.965Z" fill="#263238"/>
<path d="M107.46 336.458L139.505 267.917H158.732V336.458H167.056V350.944H158.732V369.344H141.42V350.944H107.46V336.458ZM141.42 336.458V298.348L123.656 336.458H141.42Z" fill="#263238"/>
<path d="M173.631 292.251C173.631 276.033 183.086 266.757 200.383 266.757C217.68 266.757 227.135 276.033 227.135 292.251V344.996C227.135 361.228 217.68 370.503 200.383 370.503C183.086 370.503 173.631 361.228 173.631 344.996V292.251ZM191.245 346.019C191.245 353.262 194.773 356.018 200.383 356.018C205.993 356.018 209.522 353.29 209.522 346.019V291.241C209.522 283.998 205.993 281.243 200.383 281.243C194.773 281.243 191.245 283.971 191.245 291.241V346.019Z" fill="#263238"/>
<path d="M234.343 336.458L266.388 267.917H285.615V336.458H293.939V350.944H285.615V369.344H268.303V350.944H234.343V336.458ZM268.303 336.458V298.348L250.524 336.458H268.303Z" fill="#263238"/>
<path d="M115.181 393.705C119.494 393.705 121.213 396.16 121.213 399.829V402.557C121.213 406.554 119.177 408.545 114.759 408.545H111.29V418.912H109.405V393.705H115.181ZM114.714 407.045C117.941 407.045 119.328 405.681 119.328 402.68V399.72C119.328 396.992 118.303 395.219 115.181 395.219H111.245V407.045H114.714Z" fill="#263238"/>
<path d="M126.069 413.292L124.666 418.871H123.008L129.04 393.609H131.709L137.922 418.871H136.142L134.755 413.292H126.069ZM126.34 411.846H134.468L130.367 395.478L126.34 411.846Z" fill="#263238"/>
<path d="M152.655 399.87V401.739H150.89V399.761C150.89 397.033 149.744 395.001 146.668 395.001C143.592 395.001 142.446 397.06 142.446 399.761V412.883C142.446 415.611 143.607 417.602 146.668 417.602C149.729 417.602 150.89 415.583 150.89 412.883V407.427H147.196V405.926H152.655V412.746C152.655 416.388 150.89 419.116 146.623 419.116C142.355 419.116 140.591 416.388 140.591 412.746V399.843C140.591 396.201 142.34 393.459 146.623 393.459C150.906 393.459 152.655 396.228 152.655 399.87Z" fill="#263238"/>
<path d="M165.156 405.381V406.895H157.616V417.384H166.77V418.884H155.776V393.705H166.77V395.219H157.616V405.381H165.156Z" fill="#263238"/>
<path d="M177.552 418.925H175.878V393.705H178.276L186.645 414.997V393.705H188.319V418.925H186.283L177.552 396.447V418.925Z" fill="#263238"/>
<path d="M191.35 399.87C191.35 396.187 193.22 393.487 197.382 393.487C201.544 393.487 203.55 396.215 203.55 399.87V412.774C203.55 416.443 201.68 419.144 197.382 419.144C193.084 419.144 191.35 416.416 191.35 412.774V399.87ZM193.175 412.883C193.175 415.611 194.366 417.629 197.442 417.629C200.519 417.629 201.785 415.611 201.785 412.883V399.761C201.785 397.033 200.549 395.001 197.442 395.001C194.336 395.001 193.175 397.019 193.175 399.761V412.883Z" fill="#263238"/>
<path d="M211.346 418.925V395.219H205.691V393.705H218.871V395.219H213.186V418.925H211.346Z" fill="#263238"/>
<path d="M236.379 405.995V407.509H229.216V418.925H227.391V393.705H237.947V395.219H229.216V405.995H236.379Z" fill="#263238"/>
<path d="M240.601 399.87C240.601 396.187 242.471 393.487 246.633 393.487C250.796 393.487 252.816 396.215 252.816 399.87V412.774C252.816 416.443 250.931 419.144 246.633 419.144C242.336 419.144 240.601 416.416 240.601 412.774V399.87ZM242.426 412.883C242.426 415.611 243.633 417.629 246.694 417.629C249.755 417.629 251.037 415.611 251.037 412.883V399.761C251.037 397.033 249.8 395.001 246.694 395.001C243.587 395.001 242.426 397.019 242.426 399.761V412.883Z" fill="#263238"/>
<path d="M257.657 412.842C257.657 415.57 258.773 417.629 261.834 417.629C264.895 417.629 266.026 415.543 266.026 412.842V393.746H267.73V412.842C267.73 416.443 266.056 419.212 261.804 419.212C257.551 419.212 255.772 416.484 255.772 412.842V393.746H257.612L257.657 412.842Z" fill="#263238"/>
<path d="M272.556 418.925H270.882V393.705H273.28L281.649 414.997V393.705H283.323V418.925H281.287L272.556 396.447V418.925Z" fill="#263238"/>
<path d="M292.552 393.705C296.865 393.705 298.735 396.269 298.735 399.979V412.665C298.735 416.375 296.865 418.925 292.552 418.925H286.52V393.705H292.552ZM292.552 417.384C295.658 417.384 296.925 415.461 296.925 412.692V399.857C296.925 397.129 295.613 395.178 292.552 395.178H288.284V417.384H292.552Z" fill="#263238"/>
<path d="M626.815 112.039C626.815 112.039 626.815 105.301 616.395 95.8892C605.975 86.4776 599.279 81.0762 599.279 81.0762C599.279 81.0762 594.077 96.5576 603.803 105.983C610.907 112.595 618.604 118.662 626.815 124.124V112.039Z" fill="#4CAAD2"/>
<path d="M611.69 154.132C611.69 154.132 611.69 147.394 601.285 137.982C590.88 128.571 584.169 123.169 584.169 123.169C584.169 123.169 578.966 138.651 588.693 148.076C595.807 154.701 603.52 160.778 611.75 166.244L611.69 154.132Z" fill="#4CAAD2"/>
<path d="M626.152 123.497C626.152 123.497 626.951 116.799 638.397 108.424C649.842 100.049 657.141 95.3436 657.141 95.3436C657.141 95.3436 660.504 111.234 649.797 119.677C641.95 125.586 633.572 130.892 624.749 135.541L626.152 123.497Z" fill="#4CAAD2"/>
<path d="M607.89 173.132C607.89 173.132 609.398 166.544 621.824 159.302C634.25 152.059 641.986 148.076 641.986 148.076C641.986 148.076 643.494 164.198 631.852 171.578C623.359 176.71 614.405 181.191 605.085 184.972L607.89 173.132Z" fill="#4CAAD2"/>
<path d="M611.328 227.242C611.328 227.242 611.328 220.504 621.748 211.093C632.169 201.681 638.849 196.28 638.849 196.28C638.849 196.28 644.067 211.761 634.325 221.186C627.211 227.811 619.499 233.889 611.268 239.355L611.328 227.242Z" fill="#4CAAD2"/>
<path d="M611.162 240.446C611.162 240.446 612.218 233.79 603.381 223.123C594.544 212.457 588.768 206.264 588.768 206.264C588.768 206.264 581.228 220.913 589.281 231.484C595.276 238.958 601.949 245.966 609.232 252.435L611.162 240.446Z" fill="#4CAAD2"/>
<path d="M600.893 279.62C600.893 279.62 600.893 272.896 611.298 263.47C621.703 254.045 628.414 248.657 628.414 248.657C628.414 248.657 633.616 264.139 623.89 273.564C616.78 280.194 609.067 286.271 600.832 291.732L600.893 279.62Z" fill="#4CAAD2"/>
<path d="M607.845 315.084C607.845 315.084 605.96 308.564 613.394 297.066C620.829 285.567 625.82 278.829 625.82 278.829C625.82 278.829 635.185 292.605 628.474 303.94C623.443 311.978 617.683 319.625 611.253 326.801L607.845 315.084Z" fill="#4CAAD2"/>
<path d="M627.75 110.307C627.228 117.314 626.276 124.291 624.9 131.203C620.783 150.449 610.499 162.862 606.382 180.239C602.265 197.616 614.073 220 610.906 242.328C607.739 264.657 598.148 277.056 600.893 291.964C603.637 306.873 618.039 347.193 618.039 347.193" stroke="#263238" stroke-width="1.08162" stroke-linecap="round" stroke-linejoin="round"/>
<path d="M626.061 127.97L637.281 120.182" stroke="#263238" stroke-width="1.08162" stroke-linecap="round" stroke-linejoin="round"/>
<path d="M626.574 118.995L621.884 111.439" stroke="#263238" stroke-width="1.08162" stroke-linecap="round" stroke-linejoin="round"/>
<path d="M607 179.434C607 179.434 616.395 173.064 626.061 166.694" stroke="#263238" stroke-width="1.08162" stroke-linecap="round" stroke-linejoin="round"/>
<path d="M611.69 166.176C611.69 166.176 603.864 152.291 594.996 143.084" stroke="#263238" stroke-width="1.08162" stroke-linecap="round" stroke-linejoin="round"/>
<path d="M611.705 236.818C617.082 227.87 623.868 219.678 631.852 212.498" stroke="#263238" stroke-width="1.08162" stroke-linecap="round" stroke-linejoin="round"/>
<path d="M609.865 246.256C607.016 240.186 603.612 234.341 599.686 228.784C594.212 221.459 593.428 220.518 593.428 220.518" stroke="#263238" stroke-width="1.08162" stroke-linecap="round" stroke-linejoin="round"/>
<path d="M600.893 291.964C603.268 286.615 606.096 281.439 609.353 276.483C612.602 271.887 616.269 267.543 620.316 263.498" stroke="#263238" stroke-width="1.08162" stroke-linecap="round" stroke-linejoin="round"/>
<path d="M611.238 326.801C610.693 321.694 611.661 316.549 614.043 311.892C617.963 305.072 622.397 296.07 624.222 292.537" stroke="#263238" stroke-width="1.08162" stroke-linecap="round" stroke-linejoin="round"/>
<path d="M558.608 201.872C558.608 201.872 557.794 197.657 563.208 190.728C568.622 183.799 572.15 179.816 572.15 179.816C572.15 179.816 577.277 189.01 572.346 195.87C568.681 200.722 564.57 205.285 560.056 209.51L558.608 201.872Z" fill="#4CAAD2"/>
<path d="M573.13 226.806C573.13 226.806 572.316 222.578 577.73 215.648C583.144 208.719 586.672 204.736 586.672 204.736C586.672 204.736 591.8 213.93 586.868 220.791C583.203 225.642 579.092 230.205 574.578 234.431L573.13 226.806Z" fill="#4CAAD2"/>
<path d="M560.388 209.06C560.388 209.06 559.091 204.968 550.903 200.808C542.714 196.648 537.587 194.438 537.587 194.438C537.587 194.438 537.376 204.736 545.127 208.978C550.757 211.914 556.649 214.419 562.74 216.467L560.388 209.06Z" fill="#4CAAD2"/>
<path d="M577.805 238.386C577.805 238.386 576.041 234.417 567.415 231.089C558.789 227.761 553.421 226.028 553.421 226.028C553.421 226.028 554.416 236.286 562.59 239.764C568.535 242.145 574.688 244.075 580.987 245.534L577.805 238.386Z" fill="#4CAAD2"/>
<path d="M582.088 272.65C582.088 272.65 581.274 268.435 573.613 263.552C565.952 258.669 561.112 255.941 561.112 255.941C561.112 255.941 559.694 266.157 566.887 271.122C572.129 274.572 577.678 277.624 583.475 280.247L582.088 272.65Z" fill="#4CAAD2"/>
<path d="M583.837 280.984C583.837 280.984 582.329 276.892 586.627 269.363C590.925 261.833 593.775 257.359 593.775 257.359C593.775 257.359 600.29 265.803 596.474 273.223C593.613 278.499 590.269 283.55 586.476 288.322L583.837 280.984Z" fill="#4CAAD2"/>
<path d="M596.912 314.961C596.912 314.961 597.454 310.706 604.798 305.413C612.142 300.121 616.862 297.229 616.862 297.229C616.862 297.229 618.913 307.364 612.037 312.683C607.011 316.407 601.649 319.742 596.007 322.654L596.912 314.961Z" fill="#4CAAD2"/>
<path d="M594.981 304.459C594.981 304.459 594.167 300.244 586.506 295.347C578.846 290.45 574.005 287.75 574.005 287.75C574.005 287.75 572.588 297.966 579.781 302.931C585.023 306.381 590.571 309.433 596.369 312.056L594.981 304.459Z" fill="#4CAAD2"/>
<path d="M594.876 327.36C594.876 327.36 595.268 323.091 589.236 316.612C583.204 310.133 579.268 306.382 579.268 306.382C579.268 306.382 575.031 315.93 580.61 322.395C584.74 326.942 589.28 331.171 594.182 335.039L594.876 327.36Z" fill="#4CAAD2"/>
<path d="M557.809 200.944C558.981 205.286 560.416 209.567 562.107 213.766C566.993 225.428 574.94 232.194 579.615 242.696C584.29 253.199 579.615 268.394 584.214 282.075C588.814 295.756 596.399 302.535 596.459 312.206C596.52 321.877 592.327 348.543 592.327 348.543" stroke="#263238" stroke-width="1.08162" stroke-linecap="round" stroke-linejoin="round"/>
<path d="M560.991 211.843L553.029 208.065" stroke="#263238" stroke-width="1.08162" stroke-linecap="round" stroke-linejoin="round"/>
<path d="M559.589 206.278L561.624 201.081" stroke="#263238" stroke-width="1.08162" stroke-linecap="round" stroke-linejoin="round"/>
<path d="M579.072 242.26C579.072 242.26 572.422 239.177 565.59 236.136" stroke="#263238" stroke-width="1.08162" stroke-linecap="round" stroke-linejoin="round"/>
<path d="M574.548 234.39C576.509 228.781 579.102 223.37 582.284 218.24" stroke="#263238" stroke-width="1.08162" stroke-linecap="round" stroke-linejoin="round"/>
<path d="M583.068 278.693C578.625 273.615 573.393 269.145 567.536 265.421" stroke="#263238" stroke-width="1.08162" stroke-linecap="round" stroke-linejoin="round"/>
<path d="M585.345 284.435C586.401 280.351 587.834 276.354 589.628 272.486C592.192 267.358 592.569 266.689 592.569 266.689" stroke="#263238" stroke-width="1.08162" stroke-linecap="round" stroke-linejoin="round"/>
<path d="M596.097 319.503C598.687 316.595 601.559 313.902 604.678 311.456C606.659 310.133 608.52 308.669 610.242 307.077" stroke="#263238" stroke-width="1.08162" stroke-linecap="round" stroke-linejoin="round"/>
<path d="M596.459 312.206C594.325 309.09 591.93 306.126 589.296 303.34C586.706 300.779 583.886 298.416 580.867 296.274" stroke="#263238" stroke-width="1.08162" stroke-linecap="round" stroke-linejoin="round"/>
<path d="M594.152 335.08C593.884 331.823 592.655 328.691 590.593 326.01C587.321 322.095 583.46 316.912 581.892 314.866" stroke="#263238" stroke-width="1.08162" stroke-linecap="round" stroke-linejoin="round"/>
<path d="M628.052 394.469H582.194C581.047 394.465 579.948 394.052 579.138 393.318C578.327 392.585 577.87 391.591 577.866 390.554L571.049 343.878H639.181L632.38 390.554C632.376 391.591 631.919 392.585 631.108 393.318C630.297 394.052 629.198 394.465 628.052 394.469V394.469Z" fill="#263238"/>
<path d="M638.593 351.912H571.049C569.638 351.912 568.284 351.405 567.285 350.502C566.287 349.599 565.726 348.374 565.726 347.097V347.097C565.724 346.464 565.86 345.836 566.127 345.25C566.394 344.665 566.786 344.132 567.28 343.684C567.775 343.235 568.362 342.879 569.009 342.636C569.656 342.394 570.349 342.269 571.049 342.269H638.593C639.294 342.269 639.988 342.393 640.636 342.636C641.283 342.879 641.872 343.234 642.368 343.683C642.863 344.131 643.256 344.663 643.525 345.249C643.793 345.835 643.931 346.463 643.931 347.097V347.097C643.927 348.375 643.363 349.6 642.362 350.503C641.362 351.405 640.006 351.912 638.593 351.912V351.912Z" fill="#263238"/>
<path d="M573.523 449.152C572.316 449.154 571.128 448.878 570.072 448.35C569.016 447.822 568.126 447.059 567.487 446.134C566.847 445.208 566.478 444.151 566.415 443.061C566.353 441.971 566.598 440.884 567.129 439.904C568.504 437.413 568.774 434.542 567.886 431.877C566.997 429.212 565.016 426.955 562.348 425.568C551.702 419.403 526.94 418.421 518.269 418.543H518.149C516.261 418.56 514.443 417.897 513.096 416.701C511.748 415.505 510.981 413.874 510.963 412.167C510.945 410.459 511.678 408.815 513 407.596C514.322 406.377 516.125 405.684 518.013 405.667C521.647 405.599 553.843 405.367 570.009 414.724C585.948 423.958 583.475 438.881 579.932 445.496C579.351 446.588 578.442 447.511 577.308 448.157C576.175 448.804 574.863 449.148 573.523 449.152V449.152Z" fill="#263238"/>
<path d="M606.337 483.115L604.768 487.93L581.017 452.602L580.399 444.978L606.337 483.115Z" fill="white" stroke="#263238" stroke-width="1.08162" stroke-linecap="round" stroke-linejoin="round"/>
<path d="M604.768 487.93L612.188 484.615L613.515 480.019L606.337 483.115L604.768 487.93Z" fill="white" stroke="#263238" stroke-width="1.08162" stroke-linecap="round" stroke-linejoin="round"/>
<path d="M577.277 441.022L604.768 440.163L613.515 480.019L606.337 483.115L577.277 441.022Z" fill="white" stroke="#263238" stroke-width="1.08162" stroke-linecap="round" stroke-linejoin="round"/>
<path d="M573.523 442.713L601.013 484.534L591.965 488.489L551.34 458.536L573.523 442.713Z" fill="white" stroke="#263238" stroke-width="1.08162" stroke-linecap="round" stroke-linejoin="round"/>
<path d="M591.965 488.489L590.714 492.731L549.787 463.337L551.34 458.536L591.965 488.489Z" fill="white" stroke="#263238" stroke-width="1.08162" stroke-linecap="round" stroke-linejoin="round"/>
<path d="M591.965 488.489L601.013 484.534L599.777 488.776L590.714 492.731L591.965 488.489Z" fill="white" stroke="#263238" stroke-width="1.08162" stroke-linecap="round" stroke-linejoin="round"/>
<path d="M588.774 457.795C594.216 452.873 594.216 444.893 588.774 439.971C583.332 435.05 574.51 435.05 569.068 439.972C563.627 444.893 563.627 452.873 569.068 457.795C574.51 462.717 583.332 462.717 588.774 457.795Z" fill="#4CAAD2" stroke="#263238" stroke-width="1.08162" stroke-linecap="round" stroke-linejoin="round"/>
<path d="M285.268 483.115L286.837 487.93L310.573 452.602L311.206 444.978L285.268 483.115Z" fill="white" stroke="#263238" stroke-width="1.08162" stroke-linecap="round" stroke-linejoin="round"/>
<path d="M286.837 487.93L279.417 484.615L278.09 480.019L285.268 483.115L286.837 487.93Z" fill="white" stroke="#263238" stroke-width="1.08162" stroke-linecap="round" stroke-linejoin="round"/>
<path d="M314.328 441.022L286.837 440.163L278.09 480.019L285.268 483.115L314.328 441.022Z" fill="white" stroke="#263238" stroke-width="1.08162" stroke-linecap="round" stroke-linejoin="round"/>
<path d="M318.082 442.713L290.576 484.534L299.64 488.489L340.25 458.536L318.082 442.713Z" fill="white" stroke="#263238" stroke-width="1.08162" stroke-linecap="round" stroke-linejoin="round"/>
<path d="M299.64 488.489L300.891 492.731L341.818 463.337L340.25 458.536L299.64 488.489Z" fill="white" stroke="#263238" stroke-width="1.08162" stroke-linecap="round" stroke-linejoin="round"/>
<path d="M299.64 488.489L290.576 484.534L291.828 488.776L300.891 492.731L299.64 488.489Z" fill="white" stroke="#263238" stroke-width="1.08162" stroke-linecap="round" stroke-linejoin="round"/>
<path d="M313.573 453.434C312.101 453.44 310.663 453.033 309.458 452.268C308.253 451.504 307.339 450.42 306.843 449.166C306.346 447.913 306.292 446.551 306.687 445.268C307.083 443.985 307.908 442.845 309.049 442.004C365.63 400.361 354.109 338.258 353.988 337.631C353.706 335.97 354.153 334.276 355.234 332.909C356.315 331.543 357.943 330.612 359.771 330.317C361.6 330.021 363.484 330.384 365.02 331.328C366.557 332.271 367.626 333.721 367.997 335.367C368.555 338.217 381.056 405.613 318.037 451.989C316.777 452.92 315.201 453.43 313.573 453.434V453.434Z" fill="#263238"/>
<path d="M396.229 323.912C398.682 310.169 388.353 297.229 373.158 295.011C357.964 292.792 343.658 302.135 341.206 315.878C338.753 329.621 349.082 342.561 364.276 344.78C379.47 346.998 393.776 337.656 396.229 323.912Z" fill="#ADADAD" stroke="#263238" stroke-width="1.08162" stroke-linecap="round" stroke-linejoin="round"/>
<path d="M322.526 457.791C327.968 452.869 327.968 444.889 322.526 439.967C317.085 435.045 308.262 435.045 302.821 439.967C297.379 444.889 297.379 452.869 302.821 457.791C308.262 462.713 317.085 462.713 322.526 457.791Z" fill="#4CAAD2" stroke="#263238" stroke-width="1.08162" stroke-linecap="round" stroke-linejoin="round"/>
<path d="M443.337 423.699C467.764 423.699 487.567 406.991 487.567 386.38C487.567 365.769 467.764 349.061 443.337 349.061C418.91 349.061 399.107 365.769 399.107 386.38C399.107 406.991 418.91 423.699 443.337 423.699Z" fill="#ADADAD" stroke="#263238" stroke-width="1.08162" stroke-linecap="round" stroke-linejoin="round"/>
<path d="M420.295 370.435L424.427 385.016C425.647 388.624 428.235 391.728 431.735 393.781C435.235 395.834 439.423 396.705 443.563 396.242C447.698 395.774 451.518 394.002 454.351 391.238C457.184 388.473 458.848 384.894 459.05 381.129L459.865 366.425L420.295 370.435Z" fill="#263238" stroke="#263238" stroke-width="1.08162" stroke-linecap="round" stroke-linejoin="round"/>
<path d="M507.487 297.066C503.314 297.12 499.155 296.605 495.152 295.538L496.298 292.496C496.494 292.496 516.294 298.32 536.456 284.98L538.552 287.586C529.595 293.688 518.7 297.013 507.487 297.066V297.066Z" fill="#263238"/>
<path d="M529.715 321.263C513.399 299.698 494.835 301.321 494.654 301.335L494.262 298.143C495.107 298.061 515.148 296.302 532.641 319.449L529.715 321.263Z" fill="#263238"/>
<path d="M525.583 336.499C504.471 330.62 491.789 305.195 491.246 304.117L494.503 302.753C494.624 303.013 507.08 327.919 526.639 333.362L525.583 336.499Z" fill="#263238"/>
<path d="M536.561 287.149L542.262 283.712" stroke="#263238" stroke-width="1.08162" stroke-miterlimit="10"/>
<path d="M529.594 317.498L533.395 324.359" stroke="#263238" stroke-width="1.08162" stroke-miterlimit="10"/>
<path d="M522.944 333.812C525.948 334.503 529.029 334.887 532.128 334.957" stroke="#263238" stroke-width="1.08162" stroke-miterlimit="10"/>
<path d="M362.87 292.332L368.133 325.628L499.103 313.515L498.62 278.924L362.87 292.332Z" fill="white" stroke="#263238" stroke-width="1.08162" stroke-linecap="round" stroke-linejoin="round"/>
<path d="M368.133 325.628L391.552 379.233L492.407 370.149L499.103 313.515L368.133 325.628Z" fill="#E5E5E5" stroke="#263238" stroke-width="1.08162" stroke-linecap="round" stroke-linejoin="round"/>
<path d="M399.726 339.636L408.924 364.188C409.581 365.959 410.894 367.47 412.643 368.465C414.391 369.46 416.466 369.876 418.515 369.644L458.915 365.661C460.954 365.437 462.846 364.585 464.273 363.249C465.701 361.913 466.577 360.174 466.756 358.323L469.259 332.502C469.344 331.657 469.219 330.805 468.894 330.009C468.569 329.212 468.052 328.491 467.381 327.898C466.709 327.305 465.9 326.855 465.012 326.58C464.124 326.305 463.18 326.213 462.247 326.31L405.049 332.093C404.105 332.187 403.197 332.471 402.391 332.924C401.584 333.377 400.901 333.988 400.39 334.711C399.879 335.435 399.555 336.253 399.44 337.105C399.325 337.958 399.422 338.822 399.726 339.636V339.636Z" fill="#263238"/>
<path d="M399.726 353.126L416.404 351.789L421.697 338.79L434.153 359.046L440.487 343.946L443.654 348.734L473.874 345.474" stroke="white" stroke-width="1.08162" stroke-linecap="round" stroke-linejoin="round"/>
<path d="M399.726 339.636L408.924 364.188C409.581 365.959 410.894 367.47 412.643 368.465C414.391 369.46 416.466 369.876 418.515 369.644L458.915 365.661C460.954 365.437 462.846 364.585 464.273 363.249C465.701 361.913 466.577 360.174 466.756 358.323L469.259 332.502C469.344 331.657 469.219 330.805 468.894 330.009C468.569 329.212 468.052 328.491 467.381 327.898C466.709 327.305 465.9 326.855 465.012 326.58C464.124 326.305 463.18 326.213 462.247 326.31L405.049 332.093C404.105 332.187 403.197 332.471 402.391 332.924C401.584 333.377 400.901 333.988 400.39 334.711C399.879 335.435 399.555 336.253 399.44 337.105C399.325 337.958 399.422 338.822 399.726 339.636V339.636Z" stroke="#263238" stroke-width="1.08162" stroke-linecap="round" stroke-linejoin="round"/>
<path d="M483.902 335.789C487.95 335.789 491.231 332.822 491.231 329.16C491.231 325.499 487.95 322.531 483.902 322.531C479.855 322.531 476.573 325.499 476.573 329.16C476.573 332.822 479.855 335.789 483.902 335.789Z" fill="white" stroke="#263238" stroke-width="1.08162" stroke-linecap="round" stroke-linejoin="round"/>
<path d="M489.874 349.893C489.874 351.123 489.471 352.326 488.715 353.349C487.959 354.372 486.885 355.169 485.629 355.64C484.372 356.11 482.99 356.233 481.656 355.993C480.322 355.753 479.097 355.161 478.135 354.291C477.173 353.421 476.518 352.313 476.253 351.107C475.988 349.9 476.124 348.649 476.644 347.513C477.165 346.376 478.046 345.405 479.177 344.722C480.308 344.038 481.637 343.673 482.997 343.673C484.821 343.673 486.57 344.329 487.86 345.495C489.149 346.662 489.874 348.244 489.874 349.893V349.893Z" fill="#4CAAD2" stroke="#263238" stroke-width="1.08162" stroke-linecap="round" stroke-linejoin="round"/>
<path d="M394.674 336.362C395.092 337.617 395.089 338.956 394.666 340.21C394.243 341.464 393.418 342.576 392.296 343.406C391.175 344.236 389.806 344.746 388.364 344.873C386.921 344.999 385.47 344.736 384.193 344.117C382.915 343.497 381.87 342.549 381.189 341.392C380.507 340.235 380.22 338.922 380.364 337.617C380.507 336.313 381.075 335.076 381.996 334.064C382.916 333.052 384.148 332.309 385.535 331.929C386.457 331.675 387.425 331.589 388.384 331.674C389.343 331.76 390.274 332.016 391.123 332.428C391.972 332.84 392.723 333.399 393.333 334.075C393.942 334.75 394.398 335.527 394.674 336.362Z" fill="#4CAAD2" stroke="#263238" stroke-width="1.08162" stroke-linecap="round" stroke-linejoin="round"/>
<path d="M399.165 361.777C401.233 358.896 400.328 355.044 397.143 353.173C393.958 351.302 389.699 352.121 387.631 355.002C385.562 357.883 386.468 361.735 389.653 363.606C392.838 365.477 397.096 364.658 399.165 361.777Z" fill="white" stroke="#263238" stroke-width="1.08162" stroke-linecap="round" stroke-linejoin="round"/>
<path d="M416.766 429.905C427.526 429.905 436.249 422.296 436.249 412.91C436.249 403.524 427.526 395.915 416.766 395.915C406.006 395.915 397.283 403.524 397.283 412.91C397.283 422.296 406.006 429.905 416.766 429.905Z" fill="#4CAAD2" stroke="#263238" stroke-width="1.08162" stroke-linecap="round" stroke-linejoin="round"/>
<path d="M388.114 451.047L405.954 414.82C406.719 413.264 408.089 412.016 409.805 411.314C411.52 410.613 413.461 410.506 415.258 411.014C417.112 411.528 418.682 412.658 419.652 414.176C420.623 415.694 420.922 417.488 420.491 419.198L408.743 466.829L388.114 451.047Z" fill="#263238" stroke="#263238" stroke-width="1.08162" stroke-linecap="round" stroke-linejoin="round"/>
<path d="M382.157 395.56L421.109 478.478L374.361 484.288C374.361 484.288 346.403 458.577 327.613 409.664L382.157 395.56Z" fill="#ADADAD" stroke="#263238" stroke-width="1.08162" stroke-linecap="round" stroke-linejoin="round"/>
<path d="M382.157 395.492L383.982 387.621L422.949 472.189L421.109 478.409L382.157 395.492Z" fill="white" stroke="#263238" stroke-width="1.08162" stroke-linecap="round" stroke-linejoin="round"/>
<path d="M383.982 387.621L330.825 402.121L327.613 409.596L382.157 395.492L383.982 387.621Z" fill="white" stroke="#263238" stroke-width="1.08162" stroke-linecap="round" stroke-linejoin="round"/>
<path d="M331.277 417.466L384.902 402.544" stroke="#263238" stroke-width="1.08162" stroke-linecap="round" stroke-linejoin="round"/>
<path d="M335.394 426.168L389.486 412.91" stroke="#263238" stroke-width="1.08162" stroke-linecap="round" stroke-linejoin="round"/>
<path d="M339.526 435.293L394.071 422.035" stroke="#263238" stroke-width="1.08162" stroke-linecap="round" stroke-linejoin="round"/>
<path d="M345.483 446.492L398.655 432.388" stroke="#263238" stroke-width="1.08162" stroke-linecap="round" stroke-linejoin="round"/>
<path d="M351.123 455.385L404.159 442.754" stroke="#263238" stroke-width="1.08162" stroke-linecap="round" stroke-linejoin="round"/>
<path d="M356.944 463.514L408.743 452.289" stroke="#263238" stroke-width="1.08162" stroke-linecap="round" stroke-linejoin="round"/>
<path d="M363.654 471.33L411.94 461.005" stroke="#263238" stroke-width="1.08162" stroke-linecap="round" stroke-linejoin="round"/>
<path d="M368.404 477.714L416.374 470.539" stroke="#263238" stroke-width="1.08162" stroke-linecap="round" stroke-linejoin="round"/>
<path d="M468.656 429.905C479.417 429.905 488.14 422.296 488.14 412.91C488.14 403.524 479.417 395.915 468.656 395.915C457.896 395.915 449.173 403.524 449.173 412.91C449.173 422.296 457.896 429.905 468.656 429.905Z" fill="#4CAAD2" stroke="#263238" stroke-width="1.08162" stroke-linecap="round" stroke-linejoin="round"/>
<path d="M497.293 451.047L479.453 414.82C478.689 413.264 477.318 412.016 475.602 411.314C473.887 410.613 471.946 410.506 470.149 411.014V411.014C468.296 411.528 466.727 412.658 465.759 414.177C464.791 415.696 464.495 417.49 464.931 419.198L476.679 466.829L497.293 451.047Z" fill="#263238" stroke="#263238" stroke-width="1.08162" stroke-linecap="round" stroke-linejoin="round"/>
<path d="M503.265 395.56L464.298 478.478L511.046 484.288C511.046 484.288 539.004 458.577 557.794 409.664L503.265 395.56Z" fill="#ADADAD" stroke="#263238" stroke-width="1.08162" stroke-linecap="round" stroke-linejoin="round"/>
<path d="M503.265 395.492L501.425 387.621L462.458 472.189L464.298 478.409L503.265 395.492Z" fill="white" stroke="#263238" stroke-width="1.08162" stroke-linecap="round" stroke-linejoin="round"/>
<path d="M501.425 387.621L554.597 402.121L557.809 409.596L503.265 395.492L501.425 387.621Z" fill="white" stroke="#263238" stroke-width="1.08162" stroke-linecap="round" stroke-linejoin="round"/>
<path d="M554.13 417.466L500.505 402.544" stroke="#263238" stroke-width="1.08162" stroke-linecap="round" stroke-linejoin="round"/>
<path d="M550.013 426.168L495.921 412.91" stroke="#263238" stroke-width="1.08162" stroke-linecap="round" stroke-linejoin="round"/>
<path d="M545.881 435.293L491.337 422.035" stroke="#263238" stroke-width="1.08162" stroke-linecap="round" stroke-linejoin="round"/>
<path d="M539.924 446.492L486.752 432.388" stroke="#263238" stroke-width="1.08162" stroke-linecap="round" stroke-linejoin="round"/>
<path d="M534.284 455.385L481.263 442.754" stroke="#263238" stroke-width="1.08162" stroke-linecap="round" stroke-linejoin="round"/>
<path d="M528.463 463.514L476.679 452.289" stroke="#263238" stroke-width="1.08162" stroke-linecap="round" stroke-linejoin="round"/>
<path d="M521.768 471.33L473.467 461.005" stroke="#263238" stroke-width="1.08162" stroke-linecap="round" stroke-linejoin="round"/>
<path d="M517.003 477.714L469.033 470.539" stroke="#263238" stroke-width="1.08162" stroke-linecap="round" stroke-linejoin="round"/>
<path d="M538.778 324.646L543.845 326.651" stroke="#263238" stroke-width="1.08162" stroke-miterlimit="10"/>
<path d="M535.611 326.364L540.678 333.525" stroke="#263238" stroke-width="1.08162" stroke-miterlimit="10"/>
<path d="M532.761 326.651L531.811 331.234" stroke="#263238" stroke-width="1.08162" stroke-miterlimit="10"/>
<path d="M545.112 296.875H557.447" stroke="#263238" stroke-width="1.08162" stroke-miterlimit="10"/>
<path d="M535.611 297.447L553.33 302.03" stroke="#263238" stroke-width="1.08162" stroke-miterlimit="10"/>
<path d="M542.262 291.446L553.647 290.014" stroke="#263238" stroke-width="1.08162" stroke-miterlimit="10"/>
<path d="M501.425 326.937L504.592 335.244" stroke="#263238" stroke-width="1.08162" stroke-miterlimit="10"/>
<path d="M505.542 326.364L514.394 339.54" stroke="#263238" stroke-width="1.08162" stroke-miterlimit="10"/>
<path d="M508.709 318.644L517.244 321.222" stroke="#263238" stroke-width="1.08162" stroke-miterlimit="10"/>
<path d="M555.864 314.347L553.014 317.157L555.08 320.485L551.234 318.889L548.384 321.699L548.867 317.907L545.036 316.312L549.168 315.561L549.666 311.769L551.732 315.098L555.864 314.347Z" fill="#4CAAD2" stroke="#263238" stroke-width="0.540812" stroke-linecap="round" stroke-linejoin="round"/>
<path d="M560.297 276.551L557.432 279.361L559.513 282.689L555.668 281.093L552.818 283.903L553.3 280.111L549.47 278.515L553.602 277.765L554.084 273.973L556.165 277.301L560.297 276.551Z" fill="#4CAAD2" stroke="#263238" stroke-width="0.540812" stroke-linecap="round" stroke-linejoin="round"/>
<path d="M514.077 342.691L511.227 345.501L513.293 348.829L509.463 347.233L506.598 350.043L507.08 346.251L503.25 344.656L507.382 343.905L507.879 340.113L509.945 343.442L514.077 342.691Z" fill="#4CAAD2" stroke="#263238" stroke-width="0.540812" stroke-linecap="round" stroke-linejoin="round"/>
<path d="M377.452 280.234C389.204 280.234 398.73 271.715 398.73 261.206C398.73 250.697 389.204 242.178 377.452 242.178C365.701 242.178 356.174 250.697 356.174 261.206C356.174 271.715 365.701 280.234 377.452 280.234Z" fill="#ADADAD" stroke="#263238" stroke-width="1.08162" stroke-linecap="round" stroke-linejoin="round"/>
<path d="M470.179 275.037C481.931 275.037 491.457 266.518 491.457 256.009C491.457 245.5 481.931 236.981 470.179 236.981C458.428 236.981 448.901 245.5 448.901 256.009C448.901 266.518 458.428 275.037 470.179 275.037Z" fill="#ADADAD" stroke="#263238" stroke-width="1.08162" stroke-linecap="round" stroke-linejoin="round"/>
<path d="M427.397 319.135C442.18 319.135 454.164 308.778 454.164 296.002C454.164 283.225 442.18 272.868 427.397 272.868C412.614 272.868 400.63 283.225 400.63 296.002C400.63 308.778 412.614 319.135 427.397 319.135Z" fill="#4CAAD2" stroke="#263238" stroke-width="1.08162" stroke-linecap="round" stroke-linejoin="round"/>
<path d="M407.808 284.121L411.503 298.798C412.607 302.435 415.096 305.603 418.531 307.742C421.967 309.881 426.127 310.853 430.278 310.487C434.426 310.123 438.3 308.448 441.218 305.756C444.136 303.064 445.911 299.528 446.232 295.77L447.484 281.093L407.808 284.121Z" fill="#263238" stroke="#263238" stroke-width="1.08162" stroke-linecap="round" stroke-linejoin="round"/>
<path d="M383.424 222.291L373.396 258.614L473.286 251.262L458.477 216.671L383.424 222.291Z" fill="white" stroke="#263238" stroke-width="1.08162" stroke-linecap="round" stroke-linejoin="round"/>
<path d="M373.396 258.614L391.07 298.389L469.471 291.473L473.286 251.262L373.396 258.614Z" fill="#E5E5E5" stroke="#263238" stroke-width="1.08162" stroke-linecap="round" stroke-linejoin="round"/>
<path d="M418.319 274.832C418.048 280.479 412.589 284.926 406.059 285.376C399.529 285.826 393.136 282.13 391.733 276.537C390.225 270.126 395.518 263.825 403.888 263.347C412.257 262.87 418.606 268.394 418.319 274.832Z" fill="#4CAAD2" stroke="#263238" stroke-width="1.08162" stroke-linecap="round" stroke-linejoin="round"/>
<path d="M413.328 275.146C413.246 276.931 412.426 278.623 411.029 279.887C409.632 281.15 407.761 281.892 405.788 281.966C403.784 282.162 401.771 281.685 400.131 280.626C398.49 279.568 397.337 278.001 396.89 276.224C396.152 272.35 399.514 268.708 404.43 268.408C405.508 268.299 406.6 268.389 407.638 268.672C408.677 268.955 409.641 269.426 410.472 270.056C411.304 270.685 411.986 271.461 412.477 272.336C412.967 273.211 413.257 274.167 413.328 275.146V275.146Z" fill="white" stroke="#263238" stroke-width="1.08162" stroke-linecap="round" stroke-linejoin="round"/>
<path d="M462.76 270.945C462.504 276.592 457.045 281.039 450.515 281.489C443.985 281.939 437.576 278.242 436.189 272.636C434.606 266.239 439.974 259.937 448.343 259.446C456.713 258.955 463.062 264.507 462.76 270.945Z" fill="#4CAAD2" stroke="#263238" stroke-width="1.08162" stroke-linecap="round" stroke-linejoin="round"/>
<path d="M457.768 271.259C457.69 273.045 456.871 274.739 455.473 276.003C454.076 277.267 452.203 278.008 450.228 278.079C448.224 278.271 446.21 277.791 444.57 276.73C442.93 275.669 441.778 274.101 441.331 272.323C440.592 268.449 443.955 264.821 448.871 264.52C449.95 264.407 451.043 264.494 452.083 264.776C453.123 265.058 454.089 265.528 454.922 266.159C455.755 266.789 456.436 267.567 456.926 268.444C457.415 269.32 457.702 270.278 457.768 271.259V271.259Z" fill="white" stroke="#263238" stroke-width="1.08162" stroke-linecap="round" stroke-linejoin="round"/>
<path d="M418.802 291.228C417.883 291.236 416.996 290.923 416.327 290.354C415.657 289.784 415.258 289.003 415.211 288.173C415.164 287.343 415.474 286.528 416.076 285.9C416.678 285.272 417.525 284.879 418.44 284.803L437.561 283.071C438.501 282.986 439.44 283.242 440.171 283.783C440.902 284.324 441.365 285.106 441.459 285.956C441.553 286.806 441.27 287.655 440.672 288.316C440.074 288.977 439.21 289.397 438.27 289.482L419.224 291.214L418.802 291.228Z" fill="#263238" stroke="#263238" stroke-width="1.08162" stroke-linecap="round" stroke-linejoin="round"/>
<path d="M385.264 240.159C389.253 240.159 392.487 237.234 392.487 233.626C392.487 230.017 389.253 227.092 385.264 227.092C381.275 227.092 378.041 230.017 378.041 233.626C378.041 237.234 381.275 240.159 385.264 240.159Z" fill="#4CAAD2" stroke="#263238" stroke-width="1.08162" stroke-linecap="round" stroke-linejoin="round"/>
<path d="M380.8 235.399C384.206 235.399 386.968 232.901 386.968 229.82C386.968 226.739 384.206 224.242 380.8 224.242C377.394 224.242 374.632 226.739 374.632 229.82C374.632 232.901 377.394 235.399 380.8 235.399Z" fill="#4CAAD2" stroke="#263238" stroke-width="1.08162" stroke-linecap="round" stroke-linejoin="round"/>
<path d="M379.609 223.887C379.606 224.755 379.319 225.603 378.783 226.323C378.248 227.044 377.488 227.605 376.601 227.935C375.713 228.265 374.737 228.35 373.797 228.179C372.856 228.008 371.992 227.589 371.314 226.974C370.637 226.359 370.176 225.577 369.99 224.725C369.803 223.874 369.9 222.991 370.268 222.189C370.636 221.388 371.259 220.702 372.057 220.22C372.855 219.738 373.793 219.481 374.753 219.481C375.392 219.481 376.025 219.595 376.615 219.817C377.205 220.038 377.741 220.363 378.192 220.772C378.643 221.182 379 221.668 379.244 222.202C379.487 222.736 379.611 223.309 379.609 223.887V223.887Z" fill="#4CAAD2" stroke="#263238" stroke-width="1.08162" stroke-linecap="round" stroke-linejoin="round"/>
<path d="M373.577 222.346L362.538 213.07" stroke="#263238" stroke-width="1.08162" stroke-linecap="round" stroke-linejoin="round"/>
<path d="M456.2 235.645C460.189 235.645 463.423 232.719 463.423 229.111C463.423 225.503 460.189 222.578 456.2 222.578C452.211 222.578 448.977 225.503 448.977 229.111C448.977 232.719 452.211 235.645 456.2 235.645Z" fill="#4CAAD2" stroke="#263238" stroke-width="1.08162" stroke-linecap="round" stroke-linejoin="round"/>
<path d="M460.664 230.884C464.07 230.884 466.832 228.387 466.832 225.305C466.832 222.224 464.07 219.727 460.664 219.727C457.257 219.727 454.496 222.224 454.496 225.305C454.496 228.387 457.257 230.884 460.664 230.884Z" fill="#4CAAD2" stroke="#263238" stroke-width="1.08162" stroke-linecap="round" stroke-linejoin="round"/>
<path d="M461.855 219.372C461.858 220.24 462.145 221.088 462.681 221.808C463.216 222.529 463.976 223.09 464.863 223.42C465.751 223.75 466.726 223.835 467.667 223.664C468.608 223.493 469.472 223.074 470.15 222.459C470.827 221.844 471.288 221.062 471.474 220.21C471.661 219.359 471.564 218.476 471.196 217.674C470.828 216.873 470.205 216.188 469.407 215.706C468.609 215.224 467.671 214.966 466.711 214.966C466.072 214.966 465.439 215.08 464.849 215.302C464.259 215.523 463.723 215.848 463.272 216.258C462.821 216.667 462.464 217.153 462.22 217.687C461.977 218.221 461.853 218.794 461.855 219.372V219.372Z" fill="#4CAAD2" stroke="#263238" stroke-width="1.08162" stroke-linecap="round" stroke-linejoin="round"/>
<path d="M467.887 217.817L478.926 208.556" stroke="#263238" stroke-width="1.08162" stroke-linecap="round" stroke-linejoin="round"/>
<path d="M451.721 457.731C451.721 460.882 449.414 463.433 446.564 463.433C443.714 463.433 441.422 460.882 441.422 457.731C441.422 454.58 443.729 452.03 446.564 452.03C449.399 452.03 451.721 454.58 451.721 457.731Z" fill="white" stroke="#263238" stroke-width="1.08162" stroke-linecap="round" stroke-linejoin="round"/>
<path d="M461.915 462.505H461.523L447.212 460.609C446.536 460.494 445.934 460.146 445.534 459.639C445.134 459.132 444.966 458.505 445.065 457.888C445.164 457.272 445.523 456.714 446.067 456.331C446.61 455.949 447.296 455.771 447.982 455.835L462.292 457.717C462.985 457.778 463.625 458.081 464.074 458.562C464.523 459.042 464.748 459.663 464.698 460.291C464.649 460.919 464.331 461.505 463.811 461.924C463.291 462.342 462.611 462.561 461.915 462.532V462.505Z" fill="white" stroke="#263238" stroke-width="1.08162" stroke-miterlimit="10"/>
<path d="M261.909 484.384C260.039 481.724 260.401 478.45 262.875 477.086C265.348 475.722 268.726 476.745 270.595 479.391C272.465 482.037 272.028 485.325 269.615 486.702C267.202 488.08 263.764 487.043 261.909 484.384Z" fill="white" stroke="#263238" stroke-width="1.08162" stroke-linecap="round" stroke-linejoin="round"/>
<path d="M250.464 485.298C250.574 485.235 250.69 485.18 250.811 485.134L264.021 479.801C264.66 479.573 265.372 479.578 266.008 479.813C266.644 480.048 267.155 480.497 267.435 481.064C267.715 481.632 267.742 482.276 267.51 482.861C267.279 483.446 266.807 483.928 266.192 484.206L252.982 489.54C252.367 489.787 251.671 489.814 251.034 489.617C250.397 489.419 249.866 489.011 249.548 488.475C249.229 487.938 249.147 487.313 249.317 486.724C249.486 486.134 249.896 485.625 250.464 485.298V485.298Z" fill="white" stroke="#263238" stroke-width="1.08162" stroke-miterlimit="10"/>
<path d="M603.667 423.276C601.797 420.617 602.235 417.357 604.633 415.979C607.03 414.601 610.484 415.638 612.354 418.284C614.223 420.93 613.786 424.218 611.388 425.595C608.991 426.973 605.522 425.936 603.667 423.276Z" fill="white" stroke="#263238" stroke-width="1.08162" stroke-linecap="round" stroke-linejoin="round"/>
<path d="M592.237 424.204L592.569 424.04L605.779 418.707C606.101 418.561 606.453 418.476 606.813 418.456C607.173 418.436 607.533 418.483 607.873 418.593C608.212 418.703 608.524 418.874 608.788 419.095C609.053 419.317 609.265 419.585 609.411 419.883C609.558 420.181 609.637 420.502 609.642 420.829C609.648 421.155 609.58 421.478 609.444 421.78C609.307 422.082 609.105 422.356 608.848 422.585C608.591 422.814 608.286 422.993 607.95 423.113L594.755 428.446C594.14 428.693 593.444 428.721 592.807 428.523C592.17 428.326 591.639 427.918 591.321 427.381C591.002 426.845 590.92 426.219 591.09 425.63C591.259 425.041 591.669 424.532 592.237 424.204V424.204Z" fill="white" stroke="#263238" stroke-width="1.08162" stroke-miterlimit="10"/>
<path d="M348.619 486.948C342.587 486.948 337.732 489.567 337.732 492.786C337.732 496.005 342.603 498.624 348.619 498.624C354.636 498.624 359.522 496.005 359.522 492.786C359.522 489.567 354.636 486.948 348.619 486.948ZM348.619 495.8C345.513 495.8 342.995 494.436 342.995 492.786C342.995 491.135 345.513 489.771 348.619 489.771C351.726 489.771 354.259 491.135 354.259 492.786C354.259 494.436 351.741 495.8 348.619 495.8Z" fill="white" stroke="#263238" stroke-width="1.08162" stroke-miterlimit="10"/>
<path d="M446.76 487.889L439.326 485.161L431.876 487.889L430.036 493.891L435.194 498.706H443.458L448.6 493.891L446.76 487.889ZM441.422 495.555H437.23L434.606 493.113L435.541 490.072L439.326 488.708L443.096 490.072L444.031 493.113L441.422 495.555Z" fill="white" stroke="#263238" stroke-width="1.08162" stroke-linecap="round" stroke-linejoin="round"/>
<path d="M587.849 400.743L580.399 398.015L572.95 400.743L571.11 406.758L576.267 411.573H584.531L589.688 406.758L587.849 400.743ZM582.495 408.422H578.303L575.694 405.981L576.614 402.926L580.399 401.562L584.184 402.926L585.119 405.981L582.495 408.422Z" fill="white" stroke="#263238" stroke-width="1.08162" stroke-linecap="round" stroke-linejoin="round"/>
<path d="M496.539 501.584C496.329 501.584 496.119 501.552 495.921 501.488C494.908 501.102 494.054 500.439 493.478 499.592C492.648 498.433 491.97 496.373 493.282 493.181C493.741 492.014 494.511 490.967 495.524 490.132C496.536 489.297 497.76 488.7 499.088 488.394C500.791 488.021 502.567 488.011 504.275 488.364C505.984 488.716 507.579 489.422 508.935 490.426C509.117 490.56 509.267 490.724 509.378 490.911C509.489 491.097 509.557 491.302 509.58 491.513C509.602 491.723 509.578 491.936 509.509 492.138C509.44 492.34 509.326 492.528 509.176 492.69C508.876 493.019 508.444 493.227 507.974 493.268C507.505 493.309 507.037 493.18 506.673 492.909C505.748 492.241 504.667 491.772 503.513 491.535C502.359 491.299 501.16 491.302 500.008 491.545C499.229 491.726 498.512 492.079 497.92 492.572C497.328 493.064 496.88 493.681 496.615 494.368C495.272 497.574 496.886 498.46 497.218 498.542C497.642 498.713 497.977 499.025 498.154 499.414C498.331 499.802 498.336 500.237 498.168 500.629C498.031 500.916 497.803 501.159 497.513 501.329C497.223 501.499 496.884 501.588 496.539 501.584Z" fill="white" stroke="#263238" stroke-width="1.08162" stroke-linecap="round" stroke-linejoin="round"/>
<path d="M533.304 507.503C532.741 507.506 532.181 507.427 531.645 507.272L502.707 498.747C502.023 498.564 501.386 498.259 500.835 497.85C500.283 497.441 499.828 496.936 499.495 496.365C499.163 495.794 498.961 495.168 498.9 494.525C498.84 493.883 498.922 493.235 499.143 492.622C499.364 492.008 499.718 491.441 500.185 490.953C500.653 490.466 501.223 490.068 501.863 489.783C502.503 489.498 503.2 489.333 503.912 489.295C504.624 489.258 505.337 489.351 506.009 489.567L534.963 498.092C536.165 498.452 537.186 499.188 537.844 500.167C538.502 501.145 538.754 502.304 538.554 503.435C538.355 504.566 537.717 505.597 536.756 506.342C535.794 507.087 534.571 507.499 533.304 507.503V507.503Z" fill="white" stroke="#263238" stroke-width="1.08162" stroke-linecap="round" stroke-linejoin="round"/>
<path d="M501.832 498.528C501.832 498.528 502.978 491.872 512.177 491.708" stroke="#263238" stroke-width="1.08162" stroke-linecap="round" stroke-linejoin="round"/>
<path d="M508.03 499.974C508.03 499.974 509.191 493.331 518.375 493.154" stroke="#263238" stroke-width="1.08162" stroke-linecap="round" stroke-linejoin="round"/>
<path d="M513.549 501.843C513.549 501.843 514.695 495.2 523.879 495.023" stroke="#263238" stroke-width="1.08162" stroke-linecap="round" stroke-linejoin="round"/>
<path d="M519.295 503.316C519.295 503.316 520.441 496.673 529.625 496.496" stroke="#263238" stroke-width="1.08162" stroke-linecap="round" stroke-linejoin="round"/>
<path d="M525.04 505.171C525.04 505.171 526.186 498.528 535.37 498.351" stroke="#263238" stroke-width="1.08162" stroke-linecap="round" stroke-linejoin="round"/>
<path d="M533.289 507.408C533.082 507.405 532.878 507.368 532.686 507.299C531.668 506.922 530.807 506.263 530.228 505.417C529.398 504.257 528.72 502.197 530.032 498.992C530.496 497.827 531.267 496.782 532.279 495.948C533.291 495.113 534.512 494.515 535.838 494.204C537.542 493.834 539.318 493.826 541.027 494.181C542.736 494.536 544.33 495.244 545.685 496.25C545.867 496.384 546.017 496.548 546.128 496.735C546.239 496.922 546.307 497.126 546.33 497.337C546.352 497.548 546.328 497.76 546.259 497.962C546.189 498.165 546.076 498.352 545.926 498.515C545.626 498.844 545.194 499.051 544.724 499.092C544.255 499.133 543.787 499.004 543.423 498.733C542.498 498.064 541.418 497.594 540.263 497.358C539.109 497.122 537.91 497.126 536.757 497.369C535.979 497.546 535.261 497.895 534.668 498.386C534.076 498.876 533.628 499.493 533.364 500.179C532.022 503.398 533.636 504.271 533.968 504.353C534.342 504.501 534.649 504.76 534.839 505.088C535.028 505.415 535.088 505.791 535.009 506.154C534.93 506.517 534.716 506.844 534.404 507.082C534.091 507.32 533.698 507.454 533.289 507.463V507.408Z" fill="white" stroke="#263238" stroke-width="1.08162" stroke-linecap="round" stroke-linejoin="round"/>
</svg>
