<svg width="556" height="546" viewBox="0 0 556 546" fill="none" xmlns="http://www.w3.org/2000/svg">
<path d="M358.242 95.3754C338.06 101.433 320.813 114.499 309.725 132.132C302.775 143.412 298.75 156.156 292.389 167.72C274.597 200.098 237.801 222.178 199.459 223.412C179.566 224.057 159.238 219.547 139.956 224.253C115.303 230.281 96.0101 252.46 94.3643 276.669C92.7186 300.879 108.976 325.209 132.65 334.152C160.595 344.712 195.345 335.244 220.02 351.624C225.812 355.486 230.614 360.612 234.052 366.6C237.49 372.589 239.47 379.277 239.836 386.142C240.337 398.788 236.422 414.534 247.298 421.752C251.379 424.471 256.583 425.028 261.554 425.301C297.671 427.027 333.656 414.556 362.746 394.114C391.835 373.672 414.376 345.629 431.356 315.239C450.049 281.78 462.492 244.433 461.68 206.552C460.935 172.034 448.025 143.653 427.798 115.752C421.982 107.715 418.401 99.2411 408.515 95.1788C393.648 89.02 373.254 90.8763 358.242 95.3754Z" fill="#00ADB5"/>
<path opacity="0.9" d="M358.242 95.3754C338.06 101.433 320.813 114.499 309.725 132.132C302.775 143.412 298.75 156.156 292.389 167.72C274.597 200.098 237.801 222.178 199.459 223.412C179.566 224.057 159.238 219.547 139.956 224.253C115.303 230.281 96.0101 252.46 94.3643 276.669C92.7186 300.879 108.976 325.209 132.65 334.152C160.595 344.712 195.345 335.244 220.02 351.624C225.812 355.486 230.614 360.612 234.052 366.6C237.49 372.589 239.47 379.277 239.836 386.142C240.337 398.788 236.422 414.534 247.298 421.752C251.379 424.471 256.583 425.028 261.554 425.301C297.671 427.027 333.656 414.556 362.746 394.114C391.835 373.672 414.376 345.629 431.356 315.239C450.049 281.78 462.492 244.433 461.68 206.552C460.935 172.034 448.025 143.653 427.798 115.752C421.982 107.715 418.401 99.2411 408.515 95.1788C393.648 89.02 373.254 90.8763 358.242 95.3754Z" fill="white"/>
<path d="M278 462.768C397.076 462.768 493.606 457.233 493.606 450.406C493.606 443.579 397.076 438.045 278 438.045C158.924 438.045 62.3943 443.579 62.3943 450.406C62.3943 457.233 158.924 462.768 278 462.768Z" fill="#F5F5F5"/>
<path d="M348.601 409.795C348.601 409.795 345.098 371.204 326.85 334.141C326.85 334.141 353.794 358.842 354.739 409.795H348.601Z" fill="#00ADB5"/>
<path d="M362.29 411.182C362.29 411.182 365.336 367.731 372.22 346C372.22 346 375.989 372.962 366.159 409.959L362.29 411.182Z" fill="#00ADB5"/>
<path opacity="0.3" d="M362.29 411.182C362.29 411.182 365.336 367.731 372.22 346C372.22 346 375.989 372.962 366.159 409.959L362.29 411.182Z" fill="black"/>
<path d="M359.465 412.47C359.465 412.47 354.739 353.994 367.972 327.775C367.972 327.775 369.395 380.923 366.081 412.47H359.465Z" fill="#00ADB5"/>
<path opacity="0.2" d="M359.465 412.47C359.465 412.47 354.739 353.994 367.972 327.775C367.972 327.775 369.395 380.923 366.081 412.47H359.465Z" fill="black"/>
<path d="M370.641 412.776C370.641 412.776 374.132 374.185 392.391 337.122C392.391 337.122 365.437 361.823 364.491 412.776H370.641Z" fill="#00ADB5"/>
<path d="M352.849 415.768C352.849 415.768 338.181 348.588 340.795 313.011C340.795 313.011 360.41 352.618 359.465 412.47L352.849 415.768Z" fill="#00ADB5"/>
<path opacity="0.1" d="M352.849 415.768C352.849 415.768 338.181 348.588 340.795 313.011C340.795 313.011 360.41 352.618 359.465 412.47L352.849 415.768Z" fill="white"/>
<path d="M366.448 449.904H352.782C350.56 449.901 348.419 449.086 346.775 447.619C345.131 446.152 344.101 444.137 343.886 441.965L340.394 406.552H378.858L375.367 441.965C375.163 444.145 374.134 446.171 372.482 447.641C370.831 449.111 368.678 449.919 366.448 449.904Z" fill="#00ADB5"/>
<path opacity="0.3" d="M365.259 449.904H353.983C351.432 449.903 348.973 448.969 347.085 447.286C345.196 445.603 344.012 443.29 343.764 440.797L340.428 406.552H378.892L375.556 440.797C375.306 443.303 374.111 445.627 372.206 447.312C370.301 448.997 367.823 449.922 365.259 449.904V449.904Z" fill="white"/>
<path d="M284.016 213.027L286.173 203.822L283.682 198.547C283.378 198.037 283.261 197.44 283.349 196.855C283.663 195.055 284.071 193.273 284.572 191.515C284.682 191.187 284.917 190.914 285.228 190.753C285.54 190.592 285.902 190.556 286.24 190.652L291.155 192.017C292.189 192.181 293.179 199.345 293.179 199.345C293.302 199.821 293.279 200.323 293.112 200.786L291.644 205.296L290.766 216.456L284.016 213.027Z" fill="#FFC3BD"/>
<path d="M262.699 203.494C269.847 208.253 275.804 214.54 280.124 221.883C280.747 219.776 283.716 210.887 283.193 208.386C283.026 207.872 282.984 207.325 283.071 206.792C283.215 206.279 283.849 205.853 284.316 206.126C287.963 205.733 290.988 206.377 294.591 206.847C293.601 214.916 291.956 240.819 278.445 235.555C268.381 231.646 261.064 222.451 257.183 212.503C256.503 210.947 256.155 209.271 256.16 207.578C256.174 206.733 256.382 205.902 256.766 205.146C257.151 204.39 257.704 203.728 258.384 203.21C259.763 202.227 261.32 202.555 262.699 203.494Z" fill="#00ADB5"/>
<path opacity="0.7" d="M262.699 203.494C269.847 208.253 275.804 214.54 280.124 221.883C280.747 219.776 283.716 210.887 283.193 208.386C283.026 207.872 282.984 207.325 283.071 206.792C283.215 206.279 283.849 205.853 284.316 206.126C287.963 205.733 290.988 206.377 294.591 206.847C293.601 214.916 291.956 240.819 278.445 235.555C268.381 231.646 261.064 222.451 257.183 212.503C256.503 210.947 256.155 209.271 256.16 207.578C256.174 206.733 256.382 205.902 256.766 205.146C257.151 204.39 257.704 203.728 258.384 203.21C259.763 202.227 261.32 202.555 262.699 203.494Z" fill="black"/>
<path d="M249.166 285.012C250.092 299.834 250.018 314.699 248.943 329.511C248.943 329.511 246.097 305.869 244.629 296.412L249.166 285.012Z" fill="black"/>
<path d="M240.359 199.345C241.749 194.671 241.237 188.032 240.603 183.893L251.112 193.524C250.517 195.308 250.35 197.203 250.623 199.061C250.7 199.49 250.917 199.884 251.242 200.181C251.567 200.479 251.982 200.664 252.424 200.71L256.816 201.922L257.417 205.198L254.815 205.94L251.39 209.577L242.772 206.301L233.52 202.38C234.884 201.907 236.304 201.606 237.746 201.485C238.324 201.36 238.863 201.101 239.318 200.728C239.773 200.356 240.13 199.881 240.359 199.345V199.345Z" fill="#FFC3BD"/>
<path opacity="0.2" d="M244.896 188.588L250.956 194.048C250.66 195.117 250.503 196.217 250.489 197.324C249.088 197.014 247.785 196.372 246.694 195.455C245.603 194.538 244.757 193.373 244.229 192.061C243.684 190.434 244.262 188.752 244.896 188.588Z" fill="black"/>
<path d="M238.846 176.423C239.503 184.067 239.503 188.523 243.528 192.334C249.566 198.089 259.096 194.343 260.719 186.71C262.21 179.787 260.864 168.528 253.191 165.689C251.504 165.05 249.678 164.845 247.888 165.096C246.097 165.346 244.402 166.043 242.964 167.119C241.525 168.195 240.392 169.616 239.671 171.245C238.95 172.873 238.666 174.656 238.846 176.423V176.423Z" fill="#FFC3BD"/>
<path d="M249.655 176.817C249.733 177.428 250.122 177.909 250.534 177.843C250.945 177.777 251.212 177.253 251.134 176.631C251.056 176.008 250.667 175.539 250.256 175.615C249.844 175.692 249.577 176.205 249.655 176.817Z" fill="#263238"/>
<path d="M257.228 175.91C257.306 176.522 257.695 177.002 258.106 176.937C258.518 176.871 258.785 176.347 258.707 175.736C258.629 175.124 258.24 174.644 257.828 174.709C257.417 174.775 257.15 175.288 257.228 175.91Z" fill="#263238"/>
<path d="M248.788 175.812C248.725 175.823 248.661 175.823 248.599 175.812C248.509 175.769 248.44 175.695 248.405 175.603C248.369 175.512 248.371 175.411 248.41 175.32C248.652 174.793 249.016 174.329 249.474 173.965C249.931 173.601 250.47 173.347 251.045 173.224C251.143 173.214 251.242 173.241 251.32 173.3C251.398 173.359 251.451 173.445 251.468 173.541C251.481 173.636 251.455 173.732 251.397 173.81C251.339 173.887 251.253 173.939 251.156 173.955C250.701 174.055 250.275 174.259 249.916 174.552C249.556 174.844 249.272 175.216 249.088 175.637C249.057 175.689 249.014 175.733 248.961 175.763C248.909 175.794 248.849 175.811 248.788 175.812V175.812Z" fill="#263238"/>
<path d="M260.075 174.523C260.014 174.533 259.952 174.528 259.894 174.509C259.836 174.49 259.783 174.458 259.741 174.414C259.44 174.07 259.061 173.8 258.634 173.627C258.207 173.455 257.744 173.384 257.283 173.42C257.186 173.436 257.086 173.414 257.006 173.357C256.926 173.301 256.872 173.216 256.855 173.12C256.839 173.025 256.862 172.927 256.92 172.848C256.977 172.769 257.064 172.716 257.161 172.7C257.749 172.642 258.342 172.722 258.891 172.935C259.441 173.148 259.93 173.486 260.319 173.923C260.386 173.99 260.423 174.08 260.423 174.174C260.423 174.268 260.386 174.358 260.319 174.425V174.425C260.288 174.458 260.25 174.484 260.208 174.501C260.166 174.518 260.12 174.526 260.075 174.523V174.523Z" fill="#263238"/>
<path d="M241.426 174.534C242.165 176.43 242.208 178.519 241.549 180.442C241.199 180.284 240.821 180.195 240.437 180.18C240.19 180.157 239.942 180.198 239.715 180.297C239.489 180.397 239.293 180.552 239.147 180.748C239.037 181.004 238.98 181.278 238.98 181.556C238.98 181.834 239.037 182.108 239.147 182.364C239.829 184.766 240.57 187.147 241.371 189.506C237.364 185.741 234.822 180.72 234.187 175.31C236.422 175.015 239.136 174.807 241.426 174.534Z" fill="#263238"/>
<path d="M235.232 183.631C236.314 185.229 237.998 186.341 239.914 186.721C242.46 187.201 243.517 184.919 242.638 182.67C241.849 180.649 239.569 177.952 237.078 178.476C234.588 179.001 233.92 181.643 235.232 183.631Z" fill="#FFC3BD"/>
<path d="M255.515 177.832C256.577 179.527 257.876 181.068 259.374 182.408C259.016 182.792 258.576 183.096 258.087 183.298C257.597 183.499 257.069 183.594 256.538 183.576L255.515 177.832Z" fill="#ED893E"/>
<path d="M280.535 422.964L287.686 420.431L291.767 437.368L284.605 439.912L280.535 422.964Z" fill="#FFC3BD"/>
<path d="M228.294 425.694L235.889 426.12L234.487 443.363L226.892 442.937L228.294 425.694Z" fill="#FFC3BD"/>
<path d="M236.767 443.079C238.557 444.837 242.805 446.824 248.643 448.419C249.922 448.768 249.333 451.837 246.141 451.695C242.95 451.553 236 450.887 233.698 450.756C229.95 450.548 227.738 450.646 224.802 450.472C224.717 450.483 224.631 450.483 224.546 450.472C224.404 450.434 224.271 450.369 224.154 450.28C224.038 450.191 223.941 450.081 223.869 449.955C223.796 449.829 223.75 449.69 223.733 449.546C223.715 449.402 223.727 449.257 223.768 449.118L225.658 442.566C225.699 442.423 225.788 442.298 225.912 442.212C226.036 442.127 226.186 442.086 226.336 442.096L235.588 442.609C236.025 442.624 236.443 442.79 236.767 443.079V443.079Z" fill="#263238"/>
<path d="M293.568 436.221C299.528 437.215 300.607 436.745 306.59 435.741C307.879 435.522 308.258 438.711 305.366 439.857C300.574 441.758 300.418 441.747 296.37 443.374C292.879 444.739 288.931 446.497 286.173 447.643C286.091 447.677 286.005 447.699 285.917 447.709C285.629 447.753 285.334 447.684 285.097 447.517C284.859 447.349 284.699 447.096 284.65 446.814L283.56 440.076C283.538 439.928 283.566 439.777 283.641 439.647C283.715 439.516 283.831 439.414 283.971 439.355L291.666 436.308C292.28 436.11 292.938 436.08 293.568 436.221V436.221Z" fill="#263238"/>
<path opacity="0.2" d="M280.524 422.975L282.626 431.711L289.787 429.167L287.685 420.442L280.524 422.975Z" fill="black"/>
<path opacity="0.2" d="M227.571 434.583L235.166 435.02L235.889 426.12L228.294 425.694L227.571 434.583Z" fill="black"/>
<path d="M291.755 426.349L279.824 431.078C279.824 431.078 264.656 375.451 260.53 356.068C256.405 336.685 241.949 269.8 241.949 269.8L268.637 270.008C268.637 270.008 277.222 329.434 279.902 352.072C282.737 375.648 291.755 426.349 291.755 426.349Z" fill="#263238"/>
<path opacity="0.2" d="M255.66 333.475L247.52 295.681L251.468 292.547C256.872 299.962 257.361 320.153 255.66 333.475Z" fill="black"/>
<path d="M228.049 269.724C228.049 269.724 227.649 334.01 226.614 360.6C225.669 384.144 224.969 432.672 224.969 432.672L238.88 433.458C238.88 433.458 244.44 380.573 246.664 356.702C248.61 334.862 257.528 269.91 257.528 269.91L228.049 269.724Z" fill="#263238"/>
<path d="M240.959 428.774L223.745 428.119L224.146 432.956L239.414 433.819L240.959 428.774Z" fill="#00ADB5"/>
<path d="M291.911 421.108L276.554 427.223L279.112 431.711L292.589 426.36L291.911 421.108Z" fill="#00ADB5"/>
<path d="M237.968 444.007C238.486 444.072 239.01 443.964 239.458 443.701C239.606 443.595 239.723 443.452 239.797 443.287C239.872 443.123 239.9 442.941 239.881 442.762C239.892 442.658 239.871 442.552 239.822 442.459C239.773 442.366 239.696 442.289 239.603 442.238C238.791 441.769 236.267 443.101 235.966 443.265C235.935 443.279 235.91 443.302 235.894 443.332C235.878 443.361 235.872 443.395 235.877 443.428C235.88 443.463 235.893 443.496 235.915 443.523C235.937 443.55 235.966 443.571 236 443.581C236.636 443.799 237.297 443.942 237.968 444.007V444.007ZM239.191 442.522C239.268 442.506 239.348 442.506 239.425 442.522C239.458 442.548 239.484 442.581 239.502 442.619C239.519 442.657 239.527 442.699 239.525 442.74C239.535 442.861 239.514 442.983 239.463 443.094C239.412 443.204 239.334 443.301 239.236 443.374C238.369 443.718 237.4 443.718 236.534 443.374C237.355 442.927 238.258 442.641 239.191 442.533V442.522Z" fill="#00ADB5"/>
<path d="M236.078 443.625H236.155C236.967 443.265 238.591 441.714 238.468 440.851C238.452 440.719 238.389 440.596 238.289 440.506C238.189 440.416 238.059 440.364 237.924 440.36C237.789 440.334 237.649 440.336 237.515 440.366C237.381 440.396 237.255 440.453 237.145 440.535C236.233 441.201 235.911 443.374 235.9 443.428C235.897 443.46 235.903 443.492 235.917 443.52C235.931 443.549 235.951 443.574 235.978 443.592L236.078 443.625ZM237.779 440.698H237.868C238.09 440.698 238.113 440.851 238.113 440.906C238.179 441.386 237.145 442.577 236.322 443.09C236.433 442.246 236.793 441.453 237.356 440.808C237.48 440.724 237.629 440.685 237.779 440.698Z" fill="#00ADB5"/>
<path d="M292.734 437.062C293.968 436.822 296.07 436.276 296.593 435.337C296.677 435.188 296.722 435.021 296.722 434.851C296.722 434.681 296.677 434.513 296.593 434.365C296.551 434.277 296.487 434.201 296.407 434.144C296.328 434.087 296.235 434.05 296.137 434.037C295.091 433.928 292.801 436.44 292.578 436.745C292.557 436.776 292.546 436.812 292.546 436.849C292.546 436.886 292.557 436.922 292.578 436.953C292.591 436.984 292.612 437.01 292.64 437.03C292.667 437.049 292.7 437.06 292.734 437.062V437.062ZM296.07 434.408C296.108 434.411 296.144 434.425 296.174 434.449C296.204 434.472 296.226 434.504 296.237 434.539C296.286 434.632 296.311 434.735 296.311 434.84C296.311 434.944 296.286 435.047 296.237 435.14C295.948 435.697 294.813 436.232 293.19 436.592C294.113 435.61 295.414 434.408 296.037 434.408H296.07Z" fill="#00ADB5"/>
<path d="M292.734 437.062C292.757 437.063 292.781 437.059 292.802 437.05C292.823 437.04 292.842 437.026 292.856 437.008C293.568 436.287 294.624 434.125 294.18 433.382C294.068 433.218 293.846 433.044 293.368 433.175C293.195 433.225 293.034 433.309 292.894 433.421C292.755 433.534 292.64 433.673 292.556 433.83C292.226 434.838 292.226 435.923 292.556 436.931C292.566 436.96 292.584 436.987 292.607 437.008C292.63 437.029 292.659 437.044 292.689 437.051L292.734 437.062ZM293.679 433.48C293.716 433.476 293.753 433.482 293.786 433.498C293.82 433.513 293.848 433.537 293.868 433.568C294.135 434.015 293.479 435.643 292.823 436.494C292.574 435.679 292.594 434.808 292.879 434.005C292.935 433.887 293.017 433.783 293.119 433.7C293.22 433.617 293.34 433.557 293.468 433.524C293.538 433.513 293.609 433.513 293.679 433.524V433.48Z" fill="#00ADB5"/>
<path d="M232.819 202.02C232.819 202.02 233.12 201.9 233.742 201.725L235.055 201.561L237.034 201.048C237.701 201.474 247.32 207.6 250.378 208.779L251.323 208.921C252.903 206.404 253.76 203.514 253.803 200.557H254.915C255.275 200.867 255.712 201.078 256.183 201.168L257.094 201.266L259.963 203.243C259.963 203.243 266.279 215.79 268.637 247.327L269.749 271.198L224.023 272.476L232.819 202.02Z" fill="#00ADB5"/>
<g opacity="0.4">
<path d="M252.691 206.388C252.695 206.421 252.695 206.454 252.691 206.486V206.399V206.388Z" fill="black"/>
</g>
<path d="M252.691 206.388C252.695 206.421 252.695 206.454 252.691 206.486V206.399V206.388Z" fill="#00ADB5"/>
<path d="M253.87 200.535C253.87 200.535 260.419 203.036 263.299 220.191C266.179 237.346 265.434 240.644 266.402 264.963C266.646 271.155 266.624 277.303 271.35 276.538C271.35 276.538 271.628 277.728 270.416 250.822C269.204 223.915 270.928 200.557 253.87 200.535Z" fill="#00ADB5"/>
<g opacity="0.6">
<path d="M253.87 200.535C253.87 200.535 260.419 203.036 263.299 220.191C266.179 237.346 265.434 240.644 266.402 264.963C266.646 271.155 266.624 277.303 271.35 276.538C271.35 276.538 271.628 277.728 270.416 250.822C269.204 223.915 270.928 200.557 253.87 200.535Z" fill="black"/>
</g>
<path d="M234.443 201.081C234.443 201.081 242.338 205.099 243.984 231.919C245.63 258.738 250.712 276.811 241.526 277.914C232.341 279.017 222.122 274.223 222.122 274.223C222.122 274.223 221.266 276.68 222.622 264.297C223.734 253.955 223.178 262.364 223.846 252.569C224.613 241.245 217.429 210.319 221.366 207.098C225.302 203.876 234.443 201.081 234.443 201.081Z" fill="#00ADB5"/>
<g opacity="0.6">
<path d="M234.443 201.081C234.443 201.081 242.338 205.099 243.984 231.919C245.63 258.738 250.712 276.811 241.526 277.914C232.341 279.017 222.122 274.223 222.122 274.223C222.122 274.223 221.266 276.68 222.622 264.297C223.734 253.955 223.178 262.364 223.846 252.569C224.613 241.245 217.429 210.319 221.366 207.098C225.302 203.876 234.443 201.081 234.443 201.081Z" fill="black"/>
</g>
<g opacity="0.3">
<path d="M237.172 260.029L231.538 259.394C230.58 259.286 229.705 258.808 229.105 258.067C228.506 257.325 228.231 256.38 228.341 255.439L228.434 254.636L241.294 256.086L241.2 256.889C241.09 257.83 240.604 258.689 239.848 259.278C239.093 259.867 238.131 260.137 237.172 260.029V260.029Z" fill="black"/>
</g>
<path d="M256.794 229.528L267.136 227.89L270.327 223.784C270.694 223.311 271.217 222.979 271.806 222.844L275.42 221.982C275.817 221.892 276.23 221.892 276.627 221.983C277.025 222.074 277.395 222.253 277.711 222.506L279.023 223.598C279.479 223.959 279.793 224.465 279.913 225.028L280.291 226.699C280.401 227.192 280.361 227.706 280.178 228.178C279.994 228.649 279.674 229.058 279.257 229.353L274.063 233.022C273.659 233.314 273.175 233.481 272.673 233.502L268.125 233.754L256.105 236.964L256.794 229.528Z" fill="#FFC3BD"/>
<path d="M254.07 186.295C253.369 186.16 252.704 185.887 252.114 185.493C251.523 185.099 251.02 184.592 250.634 184.002C250.612 183.959 250.607 183.91 250.619 183.864C250.631 183.818 250.66 183.778 250.7 183.751C250.745 183.73 250.796 183.727 250.843 183.741C250.89 183.755 250.931 183.786 250.956 183.827C251.383 184.457 251.953 184.982 252.62 185.361C253.287 185.739 254.035 185.962 254.804 186.011C254.852 186.011 254.898 186.029 254.934 186.062C254.969 186.094 254.99 186.139 254.993 186.186C254.993 186.235 254.973 186.282 254.937 186.317C254.902 186.352 254.854 186.372 254.804 186.372C254.537 186.383 254.303 186.339 254.07 186.295Z" fill="#263238"/>
<path d="M237.067 201.015L251.846 213.966L252.424 212.94C254.394 209.103 254.922 204.706 253.914 200.524C253.915 202.526 253.538 204.51 252.802 206.377L250.978 202.358C250.944 203.465 250.783 204.563 250.5 205.634L249.511 204.663L246.753 206.847C242.649 204.575 237.545 201.332 237.067 201.015Z" fill="#00ADB5"/>
<path opacity="0.2" d="M237.067 201.015L251.846 213.966L252.424 212.94C254.394 209.103 254.922 204.706 253.914 200.524C253.915 202.526 253.538 204.51 252.802 206.377L250.978 202.358C250.944 203.465 250.783 204.563 250.5 205.634L249.511 204.663L246.753 206.847C242.649 204.575 237.545 201.332 237.067 201.015Z" fill="white"/>
<path d="M250.4 205.591C252.58 206.715 254.63 208.066 256.516 209.62C256.316 208.113 256.116 206.617 255.927 205.121C255.806 203.517 255.411 201.945 254.759 200.469C254.424 199.732 253.905 199.091 253.25 198.604C252.595 198.117 251.825 197.801 251.012 197.685C250.878 197.685 250.6 197.423 250.467 197.423C251.062 200.116 251.04 202.907 250.4 205.591V205.591Z" fill="#00ADB5"/>
<path opacity="0.6" d="M250.4 205.591C252.58 206.715 254.63 208.066 256.516 209.62C256.316 208.113 256.116 206.617 255.927 205.121C255.806 203.517 255.411 201.945 254.759 200.469C254.424 199.732 253.905 199.091 253.25 198.604C252.595 198.117 251.825 197.801 251.012 197.685C250.878 197.685 250.6 197.423 250.467 197.423C251.062 200.116 251.04 202.907 250.4 205.591V205.591Z" fill="white"/>
<path d="M250.4 205.591L245.207 210.942C245.207 210.942 236.945 202.206 237.034 199.727L240.959 196.451L250.4 205.591Z" fill="#00ADB5"/>
<path opacity="0.6" d="M250.4 205.591L245.207 210.942C245.207 210.942 236.945 202.206 237.034 199.727L240.959 196.451L250.4 205.591Z" fill="white"/>
<path d="M247.742 208.321L250.345 211.018C250.507 211.193 250.707 211.33 250.93 211.418C251.153 211.507 251.394 211.546 251.634 211.531L253.469 211.28C253.614 211.247 253.744 211.17 253.841 211.06C253.939 210.951 254 210.814 254.014 210.669L253.247 207.24L250.389 205.602L247.742 208.321Z" fill="white"/>
<path d="M251.501 243.516C251.501 243.516 254.948 252.197 256.249 251.16C257.55 250.122 260.364 244.346 260.364 244.226C259.695 232.917 257.396 221.758 253.536 211.083L251.434 211.346C252.11 222.058 252.132 232.801 251.501 243.516V243.516Z" fill="white"/>
<path d="M261.854 227.769C263.11 228.599 265.334 235.774 261.642 236.822C257.928 238.307 241.56 244.029 233.431 242.741C231.296 242.413 229.228 241.714 228.016 239.956C222.415 231.935 219.021 222.629 218.163 212.94C217.952 210.549 218.319 207.48 222.244 206.814C223.759 206.989 225.218 207.476 226.527 208.244C227.836 209.011 228.965 210.043 229.839 211.269C234.187 218.378 234.499 224.078 237.946 231.548L261.854 227.769Z" fill="#00ADB5"/>
<g opacity="0.6">
<path d="M261.854 227.769C263.11 228.599 265.334 235.774 261.642 236.822C257.928 238.307 241.56 244.029 233.431 242.741C231.296 242.413 229.228 241.714 228.016 239.956C222.415 231.935 219.021 222.629 218.163 212.94C217.952 210.549 218.319 207.48 222.244 206.814C223.759 206.989 225.218 207.476 226.527 208.244C227.836 209.011 228.965 210.043 229.839 211.269C234.187 218.378 234.499 224.078 237.946 231.548L261.854 227.769Z" fill="black"/>
</g>
<path d="M259.096 180.529C258.346 180.52 257.62 180.263 257.037 179.8C256.454 179.336 256.047 178.693 255.882 177.974L255.048 174.218L262.832 173.431V177.275C262.819 178.07 262.511 178.833 261.967 179.422C261.422 180.011 260.679 180.385 259.874 180.475H259.485L259.096 180.529ZM256.449 175.222L257.005 177.734C257.115 178.241 257.412 178.69 257.839 178.994C258.267 179.299 258.793 179.437 259.318 179.383H259.708C260.234 179.329 260.721 179.086 261.076 178.701C261.431 178.317 261.629 177.816 261.631 177.297V174.72L256.449 175.222Z" fill="#00ADB5"/>
<path d="M251.379 181.272C250.627 181.266 249.899 181.01 249.313 180.546C248.728 180.082 248.319 179.437 248.154 178.717L247.331 174.96L255.115 174.174V178.018C255.101 178.813 254.794 179.576 254.249 180.165C253.705 180.753 252.962 181.127 252.157 181.217H251.768L251.379 181.272ZM248.732 175.954L249.288 178.477C249.4 178.982 249.698 179.43 250.124 179.734C250.551 180.038 251.077 180.178 251.601 180.125H251.99C252.514 180.072 253 179.831 253.355 179.448C253.71 179.066 253.909 178.568 253.914 178.051V175.474L248.732 175.954Z" fill="#00ADB5"/>
<path d="M256.276 174.084L253.654 174.352L253.774 175.481L256.395 175.214L256.276 174.084Z" fill="#00ADB5"/>
<path d="M238.602 178.531L238.279 177.45L245.518 175.331L248.298 174.906L248.465 176.019L245.774 176.423L238.602 178.531Z" fill="#00ADB5"/>
<path d="M260.53 172.536C261.909 172.427 262.754 170.516 262.165 169.26C261.576 168.004 260.831 167.262 260.319 166.104C259.635 164.393 258.75 162.766 257.684 161.256C256.613 159.739 255.042 158.631 253.236 158.122C251.423 157.696 250.078 158.886 248.499 159.88C246.903 160.726 245.154 161.257 243.35 161.441C241.545 161.621 239.803 162.187 238.246 163.101C237.483 163.577 236.887 164.27 236.535 165.087C236.184 165.905 236.094 166.808 236.278 167.677C248.387 164.477 244.996 173.901 260.53 172.536Z" fill="#263238"/>
<path d="M286.818 193.284C286.818 191.908 286.818 190.532 286.896 189.167C286.896 188.676 286.896 188.075 286.473 187.846C286.051 187.617 285.228 187.846 284.983 188.425C284.739 189.003 284.194 193.535 284.116 194.223C284.761 194.955 286.807 194.234 286.818 193.284Z" fill="#FFC3BD"/>
<path d="M233.52 175.288C232.812 174.266 232.45 173.051 232.483 171.815C232.517 170.58 232.945 169.386 233.707 168.402C234.469 167.418 235.526 166.695 236.73 166.333C237.934 165.972 239.222 165.991 240.414 166.388C242.794 167.185 245.296 166.104 247.787 165.776C246.086 167.556 246.186 173.748 245.796 174.152C245.378 174.526 244.869 174.789 244.318 174.916C240.993 175.943 236.856 175.812 233.52 175.288Z" fill="#263238"/>
<path d="M199.237 92.5362C198.854 92.5814 198.466 92.4981 198.137 92.2999C197.808 92.1017 197.557 91.8002 197.424 91.4442L190.686 75.1515C190.6 74.945 190.557 74.724 190.559 74.5011C190.56 74.2783 190.606 74.0579 190.695 73.8525C190.783 73.6472 190.912 73.4609 191.073 73.3044C191.235 73.1479 191.426 73.0241 191.637 72.9402C191.847 72.8563 192.072 72.8139 192.299 72.8155C192.526 72.817 192.75 72.8624 192.959 72.9491C193.168 73.0358 193.358 73.1621 193.517 73.3208C193.677 73.4794 193.803 73.6674 193.888 73.8739L200.627 90.1665C200.79 90.5798 200.782 91.039 200.605 91.4467C200.429 91.8545 200.098 92.1787 199.682 92.3505C199.544 92.4337 199.394 92.4963 199.237 92.5362V92.5362Z" fill="#00ADB5"/>
<path d="M254.103 137.592C253.801 137.628 253.494 137.587 253.214 137.472L236.333 130.472C235.936 130.28 235.629 129.947 235.474 129.539C235.32 129.132 235.329 128.683 235.501 128.282C235.673 127.882 235.994 127.561 236.399 127.386C236.804 127.21 237.262 127.193 237.679 127.338L254.559 134.316C254.919 134.457 255.22 134.712 255.415 135.041C255.61 135.369 255.688 135.752 255.635 136.129C255.583 136.506 255.404 136.855 255.126 137.12C254.848 137.385 254.488 137.551 254.103 137.592V137.592Z" fill="#00ADB5"/>
<path d="M182.768 108.01C182.466 108.046 182.16 108.004 181.879 107.89L165.688 101.185C165.266 101.01 164.933 100.677 164.761 100.26C164.589 99.8436 164.592 99.3768 164.771 98.9626C164.949 98.5485 165.288 98.2209 165.712 98.052C166.136 97.883 166.612 97.8865 167.034 98.0617L183.18 104.756C183.54 104.897 183.841 105.152 184.036 105.48C184.231 105.809 184.308 106.192 184.256 106.569C184.204 106.946 184.024 107.294 183.747 107.559C183.469 107.825 183.109 107.991 182.724 108.032L182.768 108.01Z" fill="#00ADB5"/>
<path d="M237.256 108.72C236.816 108.826 236.351 108.758 235.962 108.53C235.572 108.302 235.29 107.933 235.176 107.502C235.062 107.071 235.125 106.614 235.352 106.228C235.579 105.843 235.952 105.561 236.389 105.444L253.536 98.6514C253.746 98.5675 253.971 98.5251 254.198 98.5267C254.425 98.5282 254.65 98.5736 254.859 98.6603C255.068 98.747 255.258 98.8733 255.417 99.0319C255.576 99.1906 255.702 99.3786 255.788 99.5851C255.873 99.7916 255.916 100.013 255.915 100.235C255.913 100.458 255.867 100.679 255.779 100.884C255.69 101.089 255.562 101.276 255.4 101.432C255.239 101.589 255.047 101.712 254.837 101.796L237.734 108.61C237.582 108.671 237.421 108.708 237.256 108.72V108.72Z" fill="#00ADB5"/>
<path d="M166.366 136.992C165.946 137.046 165.52 136.947 165.169 136.714C164.818 136.48 164.566 136.129 164.461 135.726C164.355 135.323 164.404 134.896 164.597 134.525C164.79 134.155 165.115 133.867 165.51 133.716L181.59 127.305C181.8 127.222 182.025 127.179 182.252 127.181C182.479 127.182 182.703 127.228 182.912 127.314C183.122 127.401 183.311 127.527 183.471 127.686C183.63 127.845 183.756 128.033 183.841 128.239C183.927 128.446 183.97 128.667 183.968 128.89C183.967 129.112 183.921 129.333 183.832 129.538C183.744 129.743 183.616 129.93 183.454 130.086C183.292 130.243 183.101 130.367 182.891 130.45L166.8 136.871C166.662 136.932 166.516 136.972 166.366 136.992Z" fill="#00ADB5"/>
<path d="M221.722 93.0386C221.42 93.0791 221.112 93.0376 220.832 92.9184C220.419 92.7449 220.091 92.4186 219.92 92.01C219.75 91.6013 219.75 91.1431 219.92 90.7344L227.037 74.1907C227.098 73.9547 227.209 73.7343 227.365 73.5446C227.52 73.3549 227.715 73.2003 227.936 73.0913C228.158 72.9823 228.401 72.9216 228.649 72.9131C228.896 72.9047 229.143 72.9488 229.372 73.0425C229.6 73.1361 229.806 73.2771 229.974 73.4558C230.142 73.6345 230.269 73.8468 230.346 74.0781C230.423 74.3093 230.449 74.5542 230.421 74.796C230.393 75.0378 230.312 75.2709 230.184 75.4792L223.067 92.023C222.953 92.2931 222.769 92.5291 222.533 92.7073C222.296 92.8855 222.017 92.9997 221.722 93.0386V93.0386Z" fill="#00ADB5"/>
<path d="M191.887 162.413C191.584 162.446 191.277 162.401 190.997 162.282C190.583 162.108 190.255 161.783 190.083 161.375C189.91 160.967 189.907 160.508 190.074 160.098L196.902 144.144C197.097 143.754 197.437 143.452 197.852 143.301C198.266 143.149 198.724 143.158 199.132 143.327C199.54 143.496 199.866 143.811 200.045 144.209C200.224 144.606 200.241 145.056 200.093 145.465L193.266 161.343C193.152 161.625 192.964 161.872 192.722 162.06C192.48 162.247 192.192 162.369 191.887 162.413V162.413Z" fill="#00ADB5"/>
<path d="M230.429 109.768C228.122 104.47 223.782 100.277 218.351 98.0971C212.919 95.9174 206.832 95.926 201.406 98.1211C195.981 100.316 191.654 104.521 189.363 109.826C187.071 115.131 186.999 121.108 189.162 126.465C192.565 134.578 201.394 137.385 208.3 142.157C210.424 143.631 213.404 151.133 213.404 151.133L230.907 144.057C230.907 144.057 227.649 136.664 228.093 134.152C229.561 126.05 233.831 117.936 230.429 109.768Z" fill="#00ADB5"/>
<path opacity="0.5" d="M230.429 109.768C228.122 104.47 223.782 100.277 218.351 98.0971C212.919 95.9174 206.832 95.926 201.406 98.1211C195.981 100.316 191.654 104.521 189.363 109.826C187.071 115.131 186.999 121.108 189.162 126.465C192.565 134.578 201.394 137.385 208.3 142.157C210.424 143.631 213.404 151.133 213.404 151.133L230.907 144.057C230.907 144.057 227.649 136.664 228.093 134.152C229.561 126.05 233.831 117.936 230.429 109.768Z" fill="white"/>
<path d="M228.438 152.159L220.966 155.184C219.634 155.719 218.14 155.713 216.813 155.169C215.485 154.624 214.431 153.585 213.882 152.279V152.279L231.385 145.236C231.923 146.538 231.915 147.997 231.363 149.293C230.811 150.59 229.76 151.62 228.438 152.159V152.159Z" fill="#263238"/>
<path d="M226.848 158.842C225.762 159.273 224.547 159.266 223.467 158.822C222.386 158.379 221.527 157.534 221.077 156.473L229.261 153.197C229.693 154.261 229.682 155.448 229.23 156.504C228.779 157.56 227.924 158.4 226.848 158.842Z" fill="#263238"/>
<path opacity="0.5" d="M226.848 158.842C225.762 159.273 224.547 159.266 223.467 158.822C222.386 158.379 221.527 157.534 221.077 156.473L229.261 153.197C229.693 154.261 229.682 155.448 229.23 156.504C228.779 157.56 227.924 158.4 226.848 158.842Z" fill="white"/>
<g opacity="0.7">
<path d="M228.438 152.159L220.966 155.184C219.634 155.719 218.14 155.713 216.813 155.169C215.485 154.624 214.431 153.585 213.882 152.279V152.279L231.385 145.236C231.923 146.538 231.915 147.997 231.363 149.293C230.811 150.59 229.76 151.62 228.438 152.159V152.159Z" fill="white"/>
</g>
<path opacity="0.3" d="M226.425 107.016C231.707 119.792 229.55 137.526 219.498 141.545C209.445 145.564 194.589 132.602 190.019 121.529C187.194 114.715 193.065 105.935 203.118 101.873C213.17 97.8104 223.612 100.18 226.425 107.016Z" fill="white"/>
<path opacity="0.4" d="M225.158 121.998C226.1 124.276 226.334 126.776 225.829 129.184C225.325 131.592 224.104 133.798 222.322 135.525C220.54 137.251 218.277 138.42 215.818 138.883C213.36 139.346 210.817 139.082 208.511 138.126C206.205 137.169 204.24 135.563 202.864 133.509C201.488 131.455 200.763 129.047 200.781 126.589C200.798 124.131 201.558 121.733 202.964 119.699C204.37 117.665 206.358 116.087 208.678 115.162C210.217 114.548 211.864 114.237 213.526 114.248C215.187 114.259 216.83 114.591 218.361 115.226C219.891 115.861 221.279 116.786 222.446 117.948C223.612 119.11 224.533 120.486 225.158 121.998Z" fill="white"/>
<path opacity="0.4" d="M222.789 126.334C224.635 130.8 221.51 133.628 216.962 135.441C212.414 137.254 208.166 137.363 206.32 132.896C204.475 128.43 207.622 125.667 212.17 123.855C216.718 122.042 220.932 121.867 222.789 126.334Z" fill="white"/>
<path d="M209.056 127.91L208.017 128.41L218.38 149.155L219.418 148.655L209.056 127.91Z" fill="#00ADB5"/>
<path d="M218.575 124.196L217.475 124.548L224.774 146.515L225.873 146.163L218.575 124.196Z" fill="#00ADB5"/>
<path d="M216.84 134.807L210.324 132.099L210.768 131.062L216.228 133.322L218.497 128.059L219.553 128.496L216.84 134.807Z" fill="#00ADB5"/>
<path d="M216.84 194.3C216.404 194.3 215.985 194.129 215.676 193.826C215.368 193.523 215.194 193.112 215.194 192.683V182.648C215.194 182.214 215.37 181.797 215.683 181.49C215.996 181.183 216.42 181.01 216.862 181.01C217.305 181.01 217.729 181.183 218.042 181.49C218.355 181.797 218.53 182.214 218.53 182.648V192.683C218.529 192.899 218.484 193.112 218.398 193.31C218.312 193.509 218.187 193.688 218.029 193.839C217.872 193.989 217.686 194.107 217.482 194.186C217.278 194.265 217.059 194.304 216.84 194.3V194.3Z" fill="#00ADB5"/>
<path d="M221.966 189.287H211.747C211.305 189.287 210.88 189.115 210.568 188.807C210.255 188.5 210.079 188.084 210.079 187.649C210.079 187.215 210.255 186.798 210.568 186.491C210.88 186.184 211.305 186.011 211.747 186.011H221.966C222.409 186.011 222.833 186.184 223.146 186.491C223.459 186.798 223.634 187.215 223.634 187.649C223.634 188.084 223.459 188.5 223.146 188.807C222.833 189.115 222.409 189.287 221.966 189.287V189.287Z" fill="#00ADB5"/>
<g opacity="0.5">
<path d="M216.84 194.3C216.404 194.3 215.985 194.129 215.676 193.826C215.368 193.523 215.194 193.112 215.194 192.683V182.648C215.194 182.214 215.37 181.797 215.683 181.49C215.996 181.183 216.42 181.01 216.862 181.01C217.305 181.01 217.729 181.183 218.042 181.49C218.355 181.797 218.53 182.214 218.53 182.648V192.683C218.529 192.899 218.484 193.112 218.398 193.31C218.312 193.509 218.187 193.688 218.029 193.839C217.872 193.989 217.686 194.107 217.482 194.186C217.278 194.265 217.059 194.304 216.84 194.3V194.3Z" fill="white"/>
<path d="M221.966 189.287H211.747C211.305 189.287 210.88 189.115 210.568 188.808C210.255 188.501 210.079 188.084 210.079 187.649C210.079 187.215 210.255 186.798 210.568 186.491C210.88 186.184 211.305 186.011 211.747 186.011H221.966C222.409 186.011 222.833 186.184 223.146 186.491C223.459 186.798 223.634 187.215 223.634 187.649C223.634 188.084 223.459 188.501 223.146 188.808C222.833 189.115 222.409 189.287 221.966 189.287V189.287Z" fill="white"/>
</g>
<path d="M279.846 169.347C279.162 169.347 278.505 169.08 278.022 168.605C277.538 168.13 277.266 167.486 277.266 166.814V151.177C277.309 150.535 277.599 149.933 278.077 149.494C278.555 149.054 279.185 148.809 279.84 148.809C280.495 148.809 281.126 149.054 281.604 149.494C282.082 149.933 282.372 150.535 282.415 151.177V166.814C282.416 167.146 282.351 167.475 282.222 167.783C282.094 168.09 281.905 168.369 281.666 168.605C281.428 168.84 281.144 169.027 280.831 169.154C280.519 169.282 280.184 169.347 279.846 169.347V169.347Z" fill="#00ADB5"/>
<path d="M287.808 161.529H271.884C271.532 161.551 271.178 161.503 270.846 161.386C270.514 161.269 270.209 161.087 269.951 160.85C269.694 160.613 269.488 160.327 269.348 160.009C269.207 159.69 269.135 159.347 269.135 159.001C269.135 158.654 269.207 158.311 269.348 157.993C269.488 157.675 269.694 157.388 269.951 157.151C270.209 156.915 270.514 156.732 270.846 156.615C271.178 156.498 271.532 156.45 271.884 156.473H287.808C288.461 156.515 289.074 156.8 289.522 157.269C289.969 157.739 290.218 158.358 290.218 159.001C290.218 159.644 289.969 160.263 289.522 160.732C289.074 161.202 288.461 161.487 287.808 161.529Z" fill="#00ADB5"/>
<g opacity="0.5">
<path d="M279.846 169.347C279.162 169.347 278.506 169.08 278.022 168.605C277.538 168.13 277.266 167.486 277.266 166.814V151.177C277.309 150.535 277.599 149.933 278.077 149.494C278.555 149.054 279.185 148.809 279.84 148.809C280.495 148.809 281.126 149.054 281.604 149.494C282.082 149.933 282.372 150.535 282.415 151.177V166.814C282.416 167.146 282.351 167.475 282.222 167.783C282.094 168.09 281.905 168.369 281.666 168.605C281.428 168.84 281.144 169.027 280.832 169.154C280.519 169.282 280.184 169.347 279.846 169.347V169.347Z" fill="white"/>
<path d="M287.808 161.529H271.884C271.532 161.551 271.178 161.503 270.846 161.386C270.514 161.269 270.209 161.087 269.951 160.85C269.694 160.613 269.488 160.327 269.348 160.009C269.207 159.69 269.135 159.347 269.135 159.001C269.135 158.654 269.207 158.311 269.348 157.993C269.488 157.675 269.694 157.388 269.951 157.151C270.209 156.915 270.514 156.732 270.846 156.615C271.178 156.498 271.532 156.45 271.884 156.473H287.808C288.461 156.515 289.074 156.8 289.522 157.269C289.969 157.739 290.218 158.358 290.218 159.001C290.218 159.644 289.969 160.263 289.522 160.732C289.074 161.202 288.461 161.487 287.808 161.529Z" fill="white"/>
</g>
</svg>
