<svg width="87" height="470" viewBox="0 0 87 470" fill="none" xmlns="http://www.w3.org/2000/svg">
<path d="M60.8866 4.82272C35.5639 1.13522 40.0879 0.0939663 22.8801 36.8172C18.9499 45.2044 12.7793 55.1234 12.5389 71.3916C12.1842 95.3987 32.8564 172.439 40.132 147.104C44.834 130.73 41.148 100.221 31.1199 90.3163C14.6744 74.073 5.5299 110.383 3.5247 142.954C1.31708 178.814 9.06886 220.104 23.4961 247.273C30.0869 259.684 38.7963 256.435 31.8122 231.5C17.4472 180.211 10.4624 237.478 14.7752 270.491C22.5433 329.954 53.4377 412.267 75.3526 404.651C82.2045 402.27 79.1549 393.241 75.6238 386.301C72.0407 379.26 62.428 354.251 65.2242 363.574C70.1127 379.872 75.2006 387.063 81.0614 397.24C88.6207 410.366 76.6232 433.265 73.2906 441.631C71.5412 446.023 69.313 456.203 69.3822 463.959C69.5189 479.272 74.4465 440.332 74.6677 425.364" stroke="#00ADB5" stroke-opacity="0.2" stroke-width="5" stroke-linecap="round" stroke-linejoin="round"/>
</svg>
