<svg width="157" height="138" viewBox="0 0 157 138" fill="none" xmlns="http://www.w3.org/2000/svg">
<path d="M2.35335 25.5461C10.2173 14.002 18.0956 -1.72164 34.3361 4.28061C42.0532 7.13274 47.1113 19.4974 45.934 26.9527C44.9574 33.1368 45.9588 41.1541 39.1801 44.4337C33.8556 47.0097 27.5225 45.9882 23.9812 40.9105C13.9247 26.4905 35.6599 19.0486 45.8187 22.0519C59.6848 26.1512 72.7977 62.8539 59.4676 72.8302C48.0384 81.3838 42.4506 66.119 50.6203 58.1269C62.1128 46.8843 71.6821 47.379 82.5273 61.5431C90.9954 72.6025 86.5021 90.3246 78.0344 99.083C76.2758 100.902 69.1018 114.11 67.8041 112.599C54.9998 97.6924 81.7673 79.9502 95.3476 84.0806C110.951 88.8264 126.685 93.8064 136.035 107.368C141.062 114.661 149.258 139.848 148.047 131.073C146.531 120.092 145.486 105.118 150.932 94.8236C152.552 91.7604 157.49 81.8537 153.201 91.5161C148.784 101.467 144.661 110.13 142.307 120.199C141.783 122.44 144.435 125.932 145.264 127.951C145.966 129.66 139.524 126.951 138.738 126.795C131.958 125.451 125.457 127.509 119.288 130.244C113.781 132.685 107.281 137.621 103.513 135.303" stroke="#00ADB5" stroke-opacity="0.2" stroke-width="4" stroke-linecap="round" stroke-linejoin="round"/>
</svg>
