<svg width="595" height="604" viewBox="0 0 595 604" fill="none" xmlns="http://www.w3.org/2000/svg">
<path d="M543.294 252.605C485.294 151.761 327.964 187.675 295.834 138.63C279.376 113.552 260.967 84.403 234.263 69.2667C208.809 54.7707 179.297 49.685 153.569 51.5937C61.6896 58.4189 22.7409 141.868 40.3886 233.506C63.9506 355.744 170.694 480.615 297.5 481.485C363.831 481.992 427.21 457.832 476.833 423.851L477.94 423.09C527.563 388.795 587.586 329.591 543.294 252.605Z" fill="#00ADB5"/>
<path opacity="0.7" d="M543.294 252.605C485.294 151.761 327.964 187.675 295.834 138.63C279.376 113.552 260.967 84.403 234.263 69.2667C208.809 54.7707 179.297 49.685 153.569 51.5937C61.6896 58.4189 22.7409 141.868 40.3886 233.506C63.9506 355.744 170.694 480.615 297.5 481.485C363.831 481.992 427.21 457.832 476.833 423.851L477.94 423.09C527.563 388.795 587.586 329.591 543.294 252.605Z" fill="white"/>
<path d="M93.0461 259.937H86.5963C79.6751 259.937 73.0373 262.729 68.1432 267.697C63.2491 272.665 60.4996 279.403 60.4996 286.429V431.8C60.4996 438.826 63.2491 445.564 68.1432 450.532C73.0373 455.5 79.6751 458.291 86.5963 458.291H175.085C182.006 458.291 188.644 455.5 193.538 450.532C198.432 445.564 201.181 438.826 201.181 431.8" stroke="#263238" stroke-width="1.10311" stroke-linecap="round" stroke-linejoin="round" stroke-dasharray="4.41 4.41"/>
<path d="M193.97 122.769V94.0549C193.97 89.7584 195.649 85.6374 198.638 82.596C201.628 79.5545 205.684 77.841 209.916 77.8315H324.989C329.228 77.8315 333.293 79.5407 336.29 82.5832C339.287 85.6257 340.971 89.7522 340.971 94.0549" stroke="#263238" stroke-width="1.10311" stroke-linecap="round" stroke-linejoin="round" stroke-dasharray="4.41 4.41"/>
<path d="M297.5 570.369C423.371 570.369 525.409 555.896 525.409 538.043C525.409 520.19 423.371 505.717 297.5 505.717C171.629 505.717 69.5912 520.19 69.5912 538.043C69.5912 555.896 171.629 570.369 297.5 570.369Z" fill="#00ADB5"/>
<path opacity="0.5" d="M297.5 570.369C423.371 570.369 525.409 555.896 525.409 538.043C525.409 520.19 423.371 505.717 297.5 505.717C171.629 505.717 69.5912 520.19 69.5912 538.043C69.5912 555.896 171.629 570.369 297.5 570.369Z" fill="white"/>
<path d="M512.343 161.292V378.805C512.343 385.915 509.561 392.734 504.609 397.763C499.657 402.792 492.941 405.619 485.936 405.622H109.063C102.059 405.619 95.3426 402.792 90.3908 397.763C85.439 392.734 82.6573 385.915 82.6573 378.805V161.292C82.6573 160.652 82.6573 160.084 82.7406 159.408C83.2046 152.641 86.1792 146.305 91.0644 141.678C95.9496 137.051 102.382 134.477 109.063 134.475H485.936C492.626 134.477 499.064 137.058 503.951 141.696C508.837 146.333 511.807 152.681 512.259 159.456C512.319 160.036 512.343 160.664 512.343 161.292Z" fill="white" stroke="#263238" stroke-width="1.10311" stroke-linecap="round" stroke-linejoin="round"/>
<path d="M95.5094 169.458H500.835V370.385C500.835 377.049 498.228 383.44 493.586 388.152C488.944 392.864 482.648 395.511 476.083 395.511H120.273C113.709 395.511 107.413 392.864 102.771 388.152C98.1291 383.44 95.5213 377.049 95.5213 370.385V169.458H95.5094Z" fill="#263238"/>
<path opacity="0.2" d="M500.847 169.458V370.385C500.882 377.011 498.323 383.381 493.733 388.093C489.142 392.805 482.897 395.473 476.369 395.511H119.988C113.46 395.473 107.214 392.805 102.624 388.093C98.0336 383.381 95.4746 377.011 95.5094 370.385V169.458H500.847Z" fill="white"/>
<path d="M512.259 159.456H82.7406C83.2045 152.69 86.1791 146.354 91.0643 141.726C95.9496 137.099 102.382 134.525 109.063 134.523H485.936C492.618 134.525 499.05 137.099 503.935 141.726C508.821 146.354 511.795 152.69 512.259 159.456V159.456Z" fill="#00ADB5" stroke="#263238" stroke-width="1.10311" stroke-miterlimit="10"/>
<path d="M135.517 146.941C135.517 147.88 135.243 148.798 134.729 149.579C134.215 150.359 133.485 150.968 132.63 151.327C131.776 151.687 130.835 151.781 129.928 151.597C129.021 151.414 128.188 150.962 127.533 150.298C126.879 149.634 126.434 148.788 126.254 147.867C126.073 146.946 126.166 145.992 126.52 145.124C126.874 144.257 127.473 143.515 128.242 142.994C129.011 142.472 129.915 142.194 130.84 142.194C132.081 142.194 133.27 142.694 134.147 143.584C135.024 144.474 135.517 145.682 135.517 146.941Z" fill="#263238"/>
<path d="M155.295 146.941C155.295 147.88 155.021 148.798 154.507 149.579C153.993 150.359 153.262 150.968 152.408 151.327C151.553 151.687 150.613 151.781 149.706 151.597C148.799 151.414 147.965 150.962 147.311 150.298C146.657 149.634 146.212 148.788 146.031 147.867C145.851 146.946 145.944 145.992 146.298 145.124C146.651 144.257 147.251 143.515 148.02 142.994C148.789 142.472 149.693 142.194 150.618 142.194C151.859 142.194 153.048 142.694 153.925 143.584C154.802 144.474 155.295 145.682 155.295 146.941V146.941Z" fill="#263238"/>
<path d="M170.396 151.689C172.979 151.689 175.073 149.563 175.073 146.941C175.073 144.319 172.979 142.194 170.396 142.194C167.813 142.194 165.719 144.319 165.719 146.941C165.719 149.563 167.813 151.689 170.396 151.689Z" fill="#263238"/>
<path d="M500.835 169.458V370.385C500.835 377.049 498.228 383.44 493.586 388.152C488.944 392.864 482.648 395.511 476.083 395.511H120.273C114.544 395.51 108.992 393.491 104.565 389.799C100.138 386.107 97.1101 380.971 95.9973 375.265V375.193C95.6947 373.6 95.5433 371.982 95.5451 370.361V169.458H500.835Z" stroke="#263238" stroke-width="1.10311" stroke-miterlimit="10"/>
<path d="M500.454 200.528C498.719 199.539 496.873 198.764 494.957 198.221L492.731 188.134H483.283L481.081 198.221C479.154 198.754 477.299 199.53 475.56 200.528L467.027 194.983L460.351 201.736L465.718 210.397C464.736 212.163 463.972 214.046 463.445 216.002L453.509 218.237V227.829L463.445 230.088C463.966 232.054 464.73 233.945 465.718 235.717L460.256 244.439L466.944 251.216L475.524 245.671C477.26 246.671 479.11 247.45 481.034 247.99L483.247 258.065H492.66L494.873 247.99C496.791 247.445 498.637 246.666 500.371 245.671L500.811 245.961V200.286L500.454 200.528ZM488.031 235.56C485.615 235.56 483.254 234.833 481.246 233.47C479.238 232.108 477.673 230.172 476.75 227.906C475.826 225.641 475.585 223.148 476.057 220.744C476.529 218.339 477.693 216.131 479.402 214.398C481.11 212.665 483.287 211.485 485.656 211.009C488.025 210.532 490.481 210.779 492.711 211.719C494.942 212.659 496.848 214.249 498.188 216.289C499.529 218.329 500.243 220.726 500.24 223.178C500.24 224.805 499.924 226.416 499.311 227.919C498.697 229.422 497.797 230.788 496.663 231.938C495.53 233.088 494.183 233.999 492.702 234.621C491.221 235.242 489.634 235.562 488.031 235.56V235.56Z" fill="#263238"/>
<path d="M330.166 210.252V190.03L309.222 185.307C308.091 181.199 306.494 177.238 304.462 173.505L306.996 169.458H208.107L210.547 173.396C208.489 177.113 206.891 181.073 205.787 185.186L184.831 189.922V210.192L205.787 214.939C206.891 219.084 208.489 223.075 210.547 226.826L199.039 245.2L213.141 259.503L231.229 247.809C234.898 249.905 238.802 251.547 242.855 252.702L247.52 273.902H267.393L272.082 252.653C276.122 251.493 280.013 249.851 283.672 247.761L301.772 259.454L315.862 245.152L304.426 226.778C306.453 223.051 308.05 219.098 309.186 215L330.166 210.252ZM257.575 226.27C252.485 226.27 247.508 224.738 243.275 221.867C239.042 218.996 235.743 214.915 233.795 210.141C231.847 205.366 231.337 200.112 232.33 195.044C233.324 189.975 235.775 185.32 239.375 181.665C242.975 178.011 247.561 175.523 252.554 174.514C257.547 173.506 262.722 174.024 267.426 176.001C272.129 177.979 276.149 181.328 278.977 185.625C281.806 189.922 283.315 194.974 283.315 200.141C283.317 203.573 282.652 206.972 281.359 210.142C280.066 213.313 278.17 216.194 275.78 218.621C273.389 221.048 270.551 222.972 267.428 224.285C264.304 225.597 260.956 226.272 257.575 226.27V226.27Z" fill="#263238"/>
<path d="M197.992 349.112L198.837 333.058L182.451 328.371C181.69 325.071 180.564 321.87 179.095 318.827L188.996 304.718L178.381 292.771L163.554 301.227C160.719 299.417 157.689 297.945 154.522 296.842L151.689 279.785L135.886 279.048L131.316 295.73C128.061 296.472 124.904 297.607 121.915 299.113L108.028 289.074L96.2353 299.838L104.637 314.901C102.836 317.766 101.381 320.84 100.305 324.058L95.5451 324.855V346.599L99.0199 347.59C99.7408 350.9 100.856 354.109 102.34 357.145L95.5094 366.87L95.9616 375.193V375.265L103.018 383.202L117.869 374.685C120.699 376.533 123.74 378.021 126.925 379.119L129.71 395.499L129.841 396.188L145.644 397.033L146.061 395.499L150.214 380.363C153.484 379.62 156.656 378.484 159.662 376.981L173.526 387.007L185.307 376.256L176.977 361.18C178.761 358.319 180.196 355.248 181.249 352.035L197.992 349.112ZM156.021 324.046C153.314 320.989 149.775 318.817 145.851 317.802C141.927 316.788 137.795 316.978 133.978 318.348C130.16 319.718 126.829 322.206 124.405 325.499C121.981 328.791 120.573 332.739 120.36 336.843C120.147 340.948 121.138 345.024 123.208 348.557C125.277 352.09 128.332 354.92 131.987 356.69C135.641 358.46 139.73 359.09 143.737 358.5C147.744 357.91 151.489 356.127 154.498 353.376C158.515 349.692 160.93 344.543 161.216 339.055C161.501 333.567 159.633 328.187 156.021 324.094V324.046Z" fill="#263238"/>
<path d="M324.394 325.182C325.005 322.695 325.329 320.145 325.358 317.583L336.722 311.543L333.581 299.838L320.752 300.442C319.453 298.254 317.908 296.227 316.147 294.402L319.943 281.947L309.59 275.907L300.927 285.499C298.482 284.9 295.98 284.576 293.466 284.532L287.516 272.996L275.997 276.173L276.603 289.207C274.448 290.526 272.451 292.095 270.653 293.882L258.373 290.029L252.423 300.526L261.943 309.308C261.327 311.785 261.011 314.328 261.003 316.883L249.614 322.923L252.756 334.616L265.608 334C266.882 336.199 268.421 338.228 270.189 340.04L266.369 352.434L276.734 358.474L285.35 348.955C287.798 349.58 290.311 349.901 292.835 349.909L298.785 361.458L310.304 358.281L309.793 347.143L309.709 345.234C311.895 343.928 313.917 342.359 315.731 340.559L328 344.425L333.069 335.437L333.926 333.915L324.394 325.182ZM297.179 332.285C294.225 333.112 291.095 333.029 288.187 332.048C285.279 331.067 282.724 329.232 280.845 326.775C278.966 324.317 277.848 321.349 277.634 318.246C277.419 315.143 278.117 312.045 279.639 309.345C281.161 306.645 283.439 304.465 286.183 303.081C288.928 301.698 292.015 301.172 295.054 301.572C298.093 301.972 300.946 303.279 303.253 305.327C305.559 307.375 307.214 310.073 308.008 313.077C309.066 317.082 308.521 321.348 306.492 324.946C304.464 328.544 301.116 331.182 297.179 332.285V332.285Z" fill="#263238"/>
<path d="M456.151 345.766L458.769 329.699L442.751 323.164C442.388 319.74 441.617 316.373 440.455 313.138L451.986 300.103L442.656 286.815L426.758 293.665C424.118 291.517 421.234 289.7 418.166 288.253L417.238 270.749L401.411 268.091L394.925 284.279C391.567 284.679 388.265 285.47 385.084 286.634L372.208 274.929L359.178 284.399L365.937 300.526C364.076 302.883 362.461 305.43 361.117 308.125C360.939 308.499 360.748 308.874 360.582 309.248L343.351 310.214L340.721 326.257L343.315 327.32L356.738 332.816C357.104 336.224 357.876 339.574 359.035 342.794L347.48 355.913L356.821 369.201L372.708 362.315C375.339 364.482 378.22 366.316 381.288 367.776L382.18 385.195L397.995 387.853L404.469 371.786C407.835 371.413 411.143 370.626 414.322 369.443L427.174 381.148L440.264 371.665L433.505 355.526C435.658 352.845 437.477 349.903 438.919 346.768L456.151 345.766ZM411.764 345.041C408.434 347.466 404.471 348.834 400.375 348.973C396.28 349.111 392.235 348.013 388.754 345.818C385.273 343.623 382.512 340.43 380.819 336.642C379.126 332.853 378.578 328.64 379.244 324.536C379.909 320.431 381.759 316.619 384.56 313.582C387.36 310.545 390.984 308.419 394.975 307.473C398.966 306.527 403.143 306.803 406.979 308.268C410.814 309.732 414.136 312.318 416.524 315.699C419.722 320.234 421.015 325.873 420.118 331.376C419.221 336.878 416.207 341.794 411.74 345.041H411.764Z" fill="#263238"/>
<path d="M241.665 226.826H117.215C108.599 226.826 101.614 233.917 101.614 242.663V417.569C101.614 426.316 108.599 433.406 117.215 433.406H241.665C250.281 433.406 257.266 426.316 257.266 417.569V242.663C257.266 233.917 250.281 226.826 241.665 226.826Z" fill="#00ADB5" stroke="#263238" stroke-width="1.10311" stroke-miterlimit="10"/>
<path opacity="0.2" d="M241.665 226.826H117.215C108.599 226.826 101.614 233.917 101.614 242.663V417.569C101.614 426.316 108.599 433.406 117.215 433.406H241.665C250.281 433.406 257.266 426.316 257.266 417.569V242.663C257.266 233.917 250.281 226.826 241.665 226.826Z" fill="black"/>
<path d="M271.748 258.27V433.177C271.75 435.257 271.348 437.318 270.564 439.241C269.781 441.164 268.632 442.911 267.183 444.383C265.734 445.855 264.014 447.022 262.12 447.819C260.227 448.616 258.197 449.026 256.147 449.026H131.697C129.649 449.024 127.62 448.613 125.728 447.816C123.836 447.018 122.117 445.85 120.669 444.379C119.222 442.907 118.074 441.16 117.291 439.238C116.509 437.316 116.107 435.256 116.108 433.177V258.27C116.108 254.072 117.75 250.046 120.673 247.076C123.597 244.107 127.562 242.437 131.697 242.434H256.147C260.285 242.434 264.253 244.102 267.179 247.072C270.105 250.042 271.748 254.07 271.748 258.27Z" fill="white" stroke="#263238" stroke-width="1.10311" stroke-linecap="round" stroke-linejoin="round"/>
<path d="M271.749 258.27V267.632H116.108V258.27C116.108 254.072 117.75 250.046 120.674 247.076C123.597 244.107 127.562 242.437 131.697 242.434H256.148C260.285 242.434 264.253 244.102 267.179 247.072C270.105 250.042 271.749 254.07 271.749 258.27Z" fill="#00ADB5" stroke="#263238" stroke-width="1.10311" stroke-miterlimit="10"/>
<path d="M169.04 278.48H130.745V285.003H169.04V278.48Z" fill="#00ADB5"/>
<path d="M169.04 336.935H130.745V343.459H169.04V336.935Z" fill="#00ADB5"/>
<path d="M169.04 389.942H130.745V396.466H169.04V389.942Z" fill="#00ADB5"/>
<path d="M239.499 294.631H130.745V299.415H239.499V294.631Z" fill="#263238"/>
<path d="M219.888 303.776H130.745V308.439H219.888V303.776Z" fill="#263238"/>
<path d="M231.562 312.775H130.745V317.438H231.562V312.775Z" fill="#263238"/>
<path d="M231.562 321.763H130.745V326.426H231.562V321.763Z" fill="#263238"/>
<path d="M239.499 347.638H130.745V352.422H239.499V347.638Z" fill="#263238"/>
<path d="M219.888 356.783H130.745V361.446H219.888V356.783Z" fill="#263238"/>
<path d="M231.562 365.782H130.745V370.445H231.562V365.782Z" fill="#263238"/>
<path d="M239.499 405.84H130.745V410.623H239.499V405.84Z" fill="#263238"/>
<path d="M219.888 414.996H130.745V419.659H219.888V414.996Z" fill="#263238"/>
<path d="M231.562 423.996H130.745V428.659H231.562V423.996Z" fill="#263238"/>
<path d="M447.166 121.15V191.842C447.166 194.323 446.685 196.779 445.749 199.071C444.814 201.362 443.443 203.444 441.714 205.198C439.986 206.951 437.934 208.342 435.676 209.29C433.418 210.238 430.998 210.725 428.555 210.724H268.167C265.723 210.725 263.303 210.238 261.045 209.29C258.787 208.342 256.735 206.951 255.007 205.198C253.278 203.444 251.907 201.362 250.972 199.071C250.036 196.779 249.555 194.323 249.555 191.842V121.15C249.558 116.141 251.52 111.337 255.01 107.794C258.499 104.252 263.231 102.26 268.167 102.257H428.555C433.491 102.257 438.225 104.248 441.715 107.791C445.205 111.334 447.166 116.14 447.166 121.15Z" fill="white" stroke="#222221" stroke-width="1.10311" stroke-miterlimit="10"/>
<path d="M447.166 121.15V122.769H249.555V121.15C249.558 116.141 251.52 111.337 255.01 107.794C258.499 104.252 263.231 102.26 268.167 102.257H428.555C433.491 102.257 438.225 104.248 441.715 107.791C445.205 111.334 447.166 116.14 447.166 121.15Z" fill="#00ADB5" stroke="#263238" stroke-width="1.10311" stroke-miterlimit="10"/>
<path d="M278.591 115.896C278.192 116.302 277.683 116.579 277.129 116.691C276.575 116.803 276 116.746 275.478 116.527C274.955 116.308 274.509 115.936 274.195 115.459C273.881 114.982 273.713 114.422 273.713 113.848C273.713 113.274 273.881 112.713 274.195 112.237C274.509 111.76 274.955 111.388 275.478 111.169C276 110.95 276.575 110.893 277.129 111.005C277.683 111.117 278.192 111.394 278.591 111.8C279.122 112.345 279.42 113.081 279.42 113.848C279.42 114.615 279.122 115.35 278.591 115.896V115.896Z" fill="#263238"/>
<path d="M291.824 115.896C291.425 116.302 290.916 116.579 290.362 116.691C289.807 116.803 289.233 116.746 288.71 116.527C288.188 116.308 287.742 115.936 287.428 115.459C287.113 114.982 286.946 114.422 286.946 113.848C286.946 113.274 287.113 112.713 287.428 112.237C287.742 111.76 288.188 111.388 288.71 111.169C289.233 110.95 289.807 110.893 290.362 111.005C290.916 111.117 291.425 111.394 291.824 111.8C292.355 112.345 292.653 113.081 292.653 113.848C292.653 114.615 292.355 115.35 291.824 115.896V115.896Z" fill="#263238"/>
<path d="M305.057 115.896C304.657 116.302 304.149 116.579 303.594 116.691C303.04 116.803 302.466 116.746 301.943 116.527C301.421 116.308 300.975 115.936 300.66 115.459C300.346 114.982 300.179 114.422 300.179 113.848C300.179 113.274 300.346 112.713 300.66 112.237C300.975 111.76 301.421 111.388 301.943 111.169C302.466 110.95 303.04 110.893 303.594 111.005C304.149 111.117 304.657 111.394 305.057 111.8C305.588 112.345 305.886 113.081 305.886 113.848C305.886 114.615 305.588 115.35 305.057 115.896Z" fill="#263238"/>
<path d="M326.75 135.767H262.157V192.446H326.75V135.767Z" stroke="#263238" stroke-width="1.10311" stroke-linecap="round" stroke-linejoin="round" stroke-dasharray="4.41 4.41"/>
<path d="M411.062 135.767H336.722V139.754H411.062V135.767Z" fill="#263238"/>
<path d="M393.747 144.018H336.722V147.992H393.747V144.018Z" fill="#263238"/>
<path d="M421.629 152.232H336.722V156.255H421.629V152.232Z" fill="#263238"/>
<path d="M409.027 160.241H336.722V164.264H409.027V160.241Z" fill="#263238"/>
<path d="M452.569 296.6H416.214C411.923 296.6 408.444 300.132 408.444 304.488V326.148C408.444 330.504 411.923 334.036 416.214 334.036H452.569C456.861 334.036 460.34 330.504 460.34 326.148V304.488C460.34 300.132 456.861 296.6 452.569 296.6Z" fill="white" stroke="#263238" stroke-width="1.10311" stroke-linecap="round" stroke-linejoin="round"/>
<path d="M425.187 307.859L415.203 314.213L424.473 322.548" stroke="#263238" stroke-width="1.10311" stroke-linecap="round" stroke-linejoin="round"/>
<path d="M443.37 323.152L452.343 315.397L441.99 308.511" stroke="#263238" stroke-width="1.10311" stroke-linecap="round" stroke-linejoin="round"/>
<path d="M430.042 327.936L437.408 304.476" stroke="#263238" stroke-width="1.10311" stroke-linecap="round" stroke-linejoin="round"/>
<path d="M353.263 532.088C353.263 532.088 318.753 542.126 313.934 543.866C309.555 545.436 297.678 549.664 288.765 548.347C287.905 548.222 287.054 548.036 286.219 547.792C277.187 545.062 273.129 542.513 271.939 536.751C270.749 530.988 275.247 526.736 279.579 524.018C283.91 521.3 307.401 518.462 307.401 518.462L313.077 520.153L353.263 532.088Z" fill="#00ADB5"/>
<path d="M288.765 548.347C287.905 548.222 287.054 548.036 286.219 547.792C277.187 545.062 273.129 542.513 271.939 536.751C270.749 530.988 275.247 526.736 279.579 524.018C283.91 521.3 307.401 518.462 307.401 518.462L313.077 520.153C307.936 522.569 288.801 523.885 284.624 526.326C280.447 528.766 278.436 533.356 280.899 539.614C282.22 542.875 285.743 546.076 288.765 548.347Z" fill="white"/>
<path d="M348.075 533.513C348.075 533.513 322.157 540.326 311.875 544.687C301.594 549.048 281.994 550.957 274.985 541.969C267.976 532.982 274.176 525.226 281.161 523.499C288.147 521.771 302.272 519.053 309.983 520.153" stroke="#263238" stroke-width="1.10311" stroke-linecap="round" stroke-linejoin="round"/>
<path d="M289.277 547.876C289.277 547.876 276.092 540.532 280.471 530.24C283.708 522.653 301.296 524.296 310.007 520.153" stroke="#263238" stroke-width="1.10311" stroke-linecap="round" stroke-linejoin="round"/>
<path d="M458.376 549.978C458.019 553.602 456.77 556.997 453.2 559.135C450.82 560.56 447.44 561.406 442.597 561.358C430.494 561.201 407.742 552.418 407.742 552.418L386.441 540.459L397.519 522.665L400.554 517.833L408.384 519.621C408.384 519.621 414.87 523.354 421.391 526.326C427.912 529.297 443.751 529.95 449.332 534.504C454.913 539.058 458.983 544.011 458.376 549.978Z" fill="#00ADB5"/>
<path d="M458.376 549.978C458.019 553.602 456.77 556.997 453.2 559.135C454.228 555.572 454.018 551.759 452.605 548.335C450.225 542.911 442.478 538.128 432.291 537.33C422.105 536.533 414.31 531.701 410.229 529.539C407.039 527.86 400.316 524.187 397.519 522.665L400.554 517.833L408.384 519.621C408.384 519.621 414.87 523.354 421.391 526.326C427.912 529.297 443.751 529.95 449.332 534.504C454.913 539.058 458.983 544.011 458.376 549.978Z" fill="white"/>
<path d="M391.165 543.817C406.498 552.865 423.444 558.74 441.026 561.104C444.905 561.575 449.415 561.648 452.01 558.688C452.7 557.833 453.213 556.846 453.52 555.786C453.827 554.725 453.92 553.613 453.795 552.515C453.33 546.958 448.725 542.561 443.68 540.35C438.634 538.14 433.077 537.632 427.71 536.412C422.372 535.191 417.212 533.274 412.359 530.711C408.503 528.669 404.778 526.193 400.53 525.275C396.282 524.357 391.224 525.468 388.951 529.237" stroke="#263238" stroke-width="1.10311" stroke-linecap="round" stroke-linejoin="round"/>
<path d="M450.582 560.198C452.575 559.229 454.318 557.8 455.672 556.026C457.025 554.251 457.951 552.18 458.376 549.978C459.15 544.748 456.21 539.481 452.081 536.267C447.952 533.054 442.775 531.532 437.67 530.457C432.565 529.382 427.341 528.657 422.45 526.688C414.989 523.716 407.623 517.87 399.84 519.959" stroke="#263238" stroke-width="1.10311" stroke-linecap="round" stroke-linejoin="round"/>
<path d="M415.203 356.674L379.158 342.758L378.706 342.577C378.706 342.577 378.836 341.61 378.944 340.161C379.17 337.237 379.289 332.478 377.932 330.871C375.921 328.455 370.233 330.485 364.675 327.9C359.118 325.314 348.848 329.941 348.848 329.941C348.848 329.941 341.423 328.552 338.138 333.988C336.472 338.373 337.044 344.86 337.044 344.86L336.365 345.101C332.069 346.732 308.698 355.659 303.759 359.247C298.297 363.173 292.252 403.484 290.312 415.322C288.373 427.161 284.922 437.828 286.671 441.898C288.42 445.969 313.529 465.599 327.976 470.661C342.422 475.722 393.652 474.285 393.652 474.285C393.652 474.285 394.485 474.055 395.972 473.572C404.636 470.746 435.373 459.076 451.688 431.679C451.712 431.727 435.909 379.143 415.203 356.674ZM317.813 424.479C315.16 426.388 316.623 433.781 316.623 433.781L312.113 429.746L323.442 401.467L328.273 423.211C328.273 423.211 320.467 422.583 317.813 424.479V424.479ZM408.444 442.442C407.194 443.094 412.014 429.504 409.729 426.424C407.444 423.344 400.554 423.634 400.554 423.634L401.137 419.925L405.219 398.664L406.575 397.033C406.575 397.033 420.594 421.423 423.104 430.024C423.104 430.048 407.825 442.442 408.444 442.442Z" fill="#00ADB5"/>
<path d="M347.147 268.478L328.535 288.531C328.535 288.531 325.977 290.838 326.988 296.649C328 302.459 330.38 307.521 332.177 307.859C333.599 308.112 335.04 308.241 336.484 308.245C336.484 308.245 340.471 317.015 343.303 320.458C343.303 320.458 344.279 334 343.755 337.757C343.755 337.757 350.443 343.688 356.738 344.437C363.033 345.186 372.756 335.401 372.756 335.401L375.136 323.418C375.136 323.418 380.848 314.624 381.228 312.28C381.609 309.937 384.227 310.541 385.512 309.381C386.798 308.221 389.761 303.063 390.272 298.183C390.784 293.302 390.796 287.697 385.215 289.34C380.372 288.023 383.406 277.635 383.406 277.635L374.898 270.024L347.147 268.478Z" fill="white"/>
<path opacity="0.5" d="M379.158 342.758C378.877 343.504 378.555 344.234 378.194 344.944C375.124 350.815 361.748 362.013 361.748 362.013L357.702 349.39L355.489 362.013C351.026 360.032 337.413 348.061 337.413 348.061C337.413 348.061 336.948 346.938 336.389 345.186L337.067 344.944C337.067 344.944 336.496 338.409 338.162 334.072C341.423 328.636 348.872 330.026 348.872 330.026C348.872 330.026 359.142 325.399 364.699 327.984C370.257 330.569 375.945 328.564 377.956 330.956C379.967 333.348 378.729 342.625 378.729 342.625L379.158 342.758Z" fill="white"/>
<path opacity="0.2" d="M415.203 356.674L379.158 342.758L378.706 342.577C378.706 342.577 378.836 341.61 378.944 340.161L378.194 344.908L372.863 352.253C378.562 354.383 384.125 356.868 389.523 359.694C392.107 361.099 394.214 363.26 395.573 365.897C396.931 368.534 397.476 371.524 397.139 374.48L390.498 432.162L387.773 464.911L395.996 473.572C404.659 470.746 435.397 459.076 451.712 431.679C451.712 431.727 435.909 379.143 415.203 356.674ZM408.444 442.442C407.194 443.094 412.014 429.504 409.729 426.424C407.444 423.344 400.554 423.634 400.554 423.634L401.137 419.925L405.219 398.664L406.575 397.033C406.575 397.033 420.594 421.423 423.104 430.024C423.104 430.048 407.825 442.442 408.444 442.442Z" fill="black"/>
<path opacity="0.2" d="M330.665 426.424L325.06 407.41C325.06 407.41 315.005 372.608 308.115 364.031L309.924 388.505C309.924 388.505 303.974 417.738 298.535 426.424C293.097 435.11 291.883 437.296 298.535 437.296C305.187 437.296 321.383 450.391 321.383 450.391L320.134 439.519L330.665 426.424ZM316.54 433.781L312.03 429.746L323.359 401.467L328.19 423.211C328.19 423.211 320.431 422.619 317.778 424.515C315.124 426.412 316.54 433.781 316.54 433.781Z" fill="black"/>
<path d="M343.303 320.458C343.303 320.458 344.327 330.714 343.303 335.401" stroke="#263238" stroke-width="1.10311" stroke-linecap="round" stroke-linejoin="round"/>
<path d="M373.791 334.024C373.802 330.726 374.177 327.44 374.909 324.227" stroke="#263238" stroke-width="1.10311" stroke-linecap="round" stroke-linejoin="round"/>
<path d="M376.492 276.125C376.492 276.125 382.609 283.916 382.287 289.811C381.966 295.706 381.514 302.689 381.669 309.526C381.823 316.363 370.852 330.69 365.211 331.958C359.57 333.227 354.715 333.553 351.109 329.893C347.504 326.232 343.898 321.147 339.209 314.624C334.521 308.1 335.639 293.786 335.639 293.786" stroke="#263238" stroke-width="1.10311" stroke-linecap="round" stroke-linejoin="round"/>
<path d="M361.76 299.234C361.387 301.374 361.228 303.548 361.284 305.721C361.161 307.552 361.722 309.363 362.855 310.794C363.533 311.495 364.509 312.063 364.64 313.029C364.636 313.464 364.518 313.89 364.296 314.262C364.073 314.634 363.757 314.939 363.378 315.143C362.615 315.534 361.88 315.978 361.177 316.472" stroke="#263238" stroke-width="1.10311" stroke-linecap="round" stroke-linejoin="round"/>
<path d="M352.085 317.221C352.085 317.221 352.787 321.847 358.892 322.814" stroke="#263238" stroke-width="1.10311" stroke-linecap="round" stroke-linejoin="round"/>
<path d="M352.716 302.761C352.716 304.102 352.145 305.177 351.443 305.177C350.741 305.177 350.169 304.102 350.169 302.761C350.169 301.42 350.741 300.345 351.443 300.345C352.145 300.345 352.716 301.432 352.716 302.761Z" fill="#263238"/>
<path d="M370.935 303.341C370.935 304.682 370.364 305.757 369.662 305.757C368.96 305.757 368.388 304.67 368.388 303.341C368.388 302.012 368.96 300.925 369.662 300.925C370.364 300.925 370.935 302 370.935 303.341Z" fill="#263238"/>
<path d="M367.258 297.482C367.258 297.482 373.208 291.442 378.194 298.183" stroke="#263238" stroke-width="2.20621" stroke-linecap="round" stroke-linejoin="round"/>
<path d="M354.727 297.603C354.727 297.603 350.967 293.327 345.041 297.603" stroke="#263238" stroke-width="2.20621" stroke-linecap="round" stroke-linejoin="round"/>
<path d="M343.755 326.16C343.755 326.16 347.385 336.307 355.489 339.194C363.593 342.081 374.35 327.114 374.35 327.114L373.791 325.169C373.791 325.169 366.734 334.471 358.892 332.889C351.05 331.306 343.303 320.507 343.303 320.507L343.755 326.16Z" fill="#263238"/>
<path d="M336.484 307.859C336.484 307.859 331.653 309.586 330.368 305.769C329.083 301.952 324.68 291.889 328.535 288.531C332.391 285.173 335.485 292.964 335.485 292.964" stroke="#263238" stroke-width="1.10311" stroke-linecap="round" stroke-linejoin="round"/>
<path d="M381.657 309.937C381.657 309.937 386.143 310.855 387.428 307.037C388.713 303.22 393.116 293.157 389.261 289.799C385.405 286.441 382.311 294.233 382.311 294.233" stroke="#263238" stroke-width="1.10311" stroke-linecap="round" stroke-linejoin="round"/>
<path d="M335.485 302.761C337.163 302.492 338.678 301.585 339.721 300.224C340.358 299.029 340.763 297.721 340.911 296.371C341.353 293.802 341.576 291.199 341.578 288.591C341.525 287.572 341.617 286.551 341.851 285.559C342.209 284.561 342.759 283.645 343.47 282.865C345.148 280.86 347.183 279.169 348.789 277.091C349.65 276.111 350.305 274.962 350.715 273.716C351.124 272.47 351.278 271.152 351.169 269.843C354.851 272.924 359.152 275.15 363.772 276.362C368.392 277.575 373.217 277.745 377.908 276.862C386.417 275.17 394.568 267.596 393.581 258.077C393.394 256.481 392.72 254.985 391.653 253.797C390.586 252.61 389.179 251.792 387.631 251.457C383.43 250.394 379.658 252.665 375.85 254.127C368.912 256.785 362.117 252.218 355.108 251.457C349.158 250.793 341.744 251.554 338.626 257.606C338.626 257.606 327.916 258.886 323.156 267.874C318.396 276.862 327.405 289.292 327.405 289.292C327.405 289.292 330.975 284.846 335.651 293.834L335.485 302.761Z" fill="#263238"/>
<path d="M377.23 273.829C377.23 273.829 374.445 288.567 381.716 295.706C381.716 295.706 383.311 291.273 384.917 290.186C386.076 287.57 386.566 284.701 386.344 281.842C386.121 278.983 385.193 276.228 383.644 273.829C378.265 265.253 377.23 273.829 377.23 273.829Z" fill="#263238"/>
<path opacity="0.2" d="M390.487 257.062C389.848 259.073 388.766 260.91 387.322 262.432C385.879 263.954 384.112 265.121 382.157 265.845C372.065 270.024 362.272 265.398 352.157 264.492C343.91 263.743 334.806 271.305 334.223 279.906" stroke="white" stroke-width="1.10311" stroke-linecap="round" stroke-linejoin="round"/>
<path opacity="0.2" d="M328 277.635C328.123 274.241 329.196 270.952 331.093 268.154C332.989 265.356 335.631 263.164 338.71 261.834" stroke="white" stroke-width="1.10311" stroke-linecap="round" stroke-linejoin="round"/>
<path d="M340.971 334.024C345.408 338.719 350.763 342.422 356.691 344.896C356.691 344.896 368.769 341.332 374.909 332.816" stroke="#263238" stroke-width="1.10311" stroke-linecap="round" stroke-linejoin="round"/>
<path d="M353.314 312.597C358.679 310.099 361.033 303.66 358.572 298.214C356.112 292.769 349.768 290.379 344.404 292.877C339.039 295.375 336.685 301.814 339.146 307.26C341.606 312.705 347.95 315.095 353.314 312.597Z" stroke="#263238" stroke-width="1.10311" stroke-linecap="round" stroke-linejoin="round"/>
<path d="M374.022 313.552C379.879 312.822 384.045 307.41 383.326 301.463C382.606 295.517 377.275 291.288 371.417 292.018C365.559 292.748 361.393 298.161 362.113 304.107C362.832 310.054 368.164 314.282 374.022 313.552Z" stroke="#263238" stroke-width="1.10311" stroke-linecap="round" stroke-linejoin="round"/>
<path d="M343.303 329.977C342.22 330.266 341.206 330.773 340.321 331.468C339.436 332.163 338.697 333.033 338.15 334.024C336.258 337.406 337.401 348.049 337.401 348.049C337.401 348.049 347.171 357.858 355.489 362.001L357.94 348.001L361.748 362.001C361.748 362.001 374.624 352.76 378.194 344.944C378.194 344.944 379.384 335.824 378.194 332.864C377.923 332.042 377.408 331.326 376.72 330.813C376.032 330.3 375.204 330.017 374.35 330.001" stroke="#263238" stroke-width="1.10311" stroke-linecap="round" stroke-linejoin="round"/>
<path d="M328 423.646C328 423.646 324.18 397.674 319.099 387.079" stroke="#263238" stroke-width="1.10311" stroke-linecap="round" stroke-linejoin="round"/>
<path d="M308.115 364.031C311.073 368.299 313.714 372.785 316.016 377.452" stroke="#263238" stroke-width="1.10311" stroke-linecap="round" stroke-linejoin="round"/>
<path d="M408.444 383.419C409.47 379.077 410.875 374.836 412.644 370.747" stroke="#263238" stroke-width="1.10311" stroke-linecap="round" stroke-linejoin="round"/>
<path d="M400.554 423.646C400.554 423.646 403.303 405.84 406.587 391.175" stroke="#263238" stroke-width="1.10311" stroke-linecap="round" stroke-linejoin="round"/>
<path d="M405.219 398.64C407.876 395.064 411.612 392.468 415.857 391.247" stroke="#263238" stroke-width="1.10311" stroke-linecap="round" stroke-linejoin="round"/>
<path d="M378.718 342.577C378.718 342.577 400.887 351.576 415.203 356.686C415.203 356.686 432.815 373.489 451.7 431.727C451.7 431.727 434.398 461.275 401.482 470.746" stroke="#263238" stroke-width="1.10311" stroke-linecap="round" stroke-linejoin="round"/>
<path d="M407.194 443.493L423.105 430.048C423.105 430.048 431.518 423.561 440.264 427.994" stroke="#263238" stroke-width="1.10311" stroke-linecap="round" stroke-linejoin="round"/>
<path d="M406.587 397.033C406.587 397.033 419.737 416.76 423.104 430.048" stroke="#263238" stroke-width="1.10311" stroke-linecap="round" stroke-linejoin="round"/>
<path d="M316.718 434.53L312.066 430.048C312.066 430.048 305.164 428.84 297.333 434.143" stroke="#263238" stroke-width="1.10311" stroke-linecap="round" stroke-linejoin="round"/>
<path d="M312.066 430.048C312.066 430.048 317.849 410.72 323.549 400.826" stroke="#263238" stroke-width="1.10311" stroke-linecap="round" stroke-linejoin="round"/>
<path d="M337.067 344.944C337.067 344.944 305.164 357.097 302.034 360.648C298.904 364.2 287.016 432.15 286.695 439.929C286.421 446.888 311.268 462.507 323.585 469.091" stroke="#263238" stroke-width="1.10311" stroke-linecap="round" stroke-linejoin="round"/>
<path d="M360.927 367.908C360.927 368.331 360.803 368.745 360.572 369.096C360.341 369.448 360.012 369.722 359.627 369.884C359.242 370.046 358.818 370.088 358.41 370.006C358.001 369.923 357.626 369.719 357.331 369.42C357.037 369.121 356.836 368.74 356.755 368.326C356.674 367.911 356.715 367.481 356.875 367.09C357.034 366.7 357.304 366.366 357.65 366.131C357.997 365.896 358.404 365.77 358.821 365.77C359.098 365.769 359.372 365.823 359.629 365.93C359.885 366.037 360.118 366.194 360.314 366.393C360.509 366.592 360.665 366.828 360.77 367.088C360.875 367.348 360.929 367.627 360.927 367.908V367.908Z" fill="#263238"/>
<path d="M397.841 481.726H325.251C324.799 481.726 324.367 481.544 324.047 481.22C323.728 480.896 323.549 480.457 323.549 479.999C323.549 479.541 323.728 479.101 324.047 478.777C324.367 478.453 324.799 478.271 325.251 478.271H397.841C398.292 478.271 398.725 478.453 399.044 478.777C399.363 479.101 399.542 479.541 399.542 479.999C399.542 480.457 399.363 480.896 399.044 481.22C398.725 481.544 398.292 481.726 397.841 481.726Z" fill="#263238"/>
<path d="M400.387 475.952L410.11 429.565C410.261 428.846 410.251 428.101 410.082 427.386C409.912 426.671 409.588 426.004 409.131 425.433C408.675 424.862 408.098 424.402 407.444 424.086C406.79 423.771 406.074 423.608 405.35 423.609H320.503C319.784 423.61 319.075 423.771 318.426 424.083C317.777 424.395 317.204 424.85 316.749 425.414C316.293 425.977 315.967 426.637 315.793 427.344C315.619 428.052 315.602 428.789 315.743 429.504L324.465 474.345C324.679 475.447 325.257 476.441 326.103 477.164C326.949 477.886 328.013 478.294 329.118 478.32L395.508 479.866C396.643 479.891 397.751 479.515 398.642 478.8C399.532 478.086 400.15 477.079 400.387 475.952V475.952Z" fill="white" stroke="#263238" stroke-width="1.10311" stroke-linecap="round" stroke-linejoin="round"/>
<path d="M369.424 450.379C369.421 451.738 369.022 453.065 368.277 454.194C367.531 455.323 366.473 456.202 365.235 456.72C363.998 457.239 362.637 457.373 361.324 457.107C360.012 456.84 358.806 456.184 357.86 455.223C356.915 454.261 356.271 453.036 356.011 451.703C355.75 450.37 355.885 448.989 356.398 447.733C356.911 446.478 357.779 445.405 358.892 444.651C360.005 443.896 361.314 443.493 362.652 443.493C363.543 443.493 364.424 443.671 365.246 444.017C366.069 444.364 366.816 444.871 367.445 445.511C368.073 446.15 368.572 446.909 368.912 447.745C369.251 448.58 369.425 449.475 369.424 450.379Z" fill="#263238"/>
<path d="M382.74 428.043H392.819" stroke="#263238" stroke-width="1.10311" stroke-linecap="round" stroke-linejoin="round"/>
<path d="M334.604 428.043H372.863" stroke="#263238" stroke-width="1.10311" stroke-linecap="round" stroke-linejoin="round"/>
<path d="M400.554 525.202L392.819 545.811C392.819 545.811 373.089 540.761 347.825 535.506C321.395 530.01 293.799 522.895 279.483 497.394C277.746 494.289 276.58 490.617 277.401 487.138C279.46 478.332 290.753 475.94 298.19 475.058C302.866 474.545 307.565 474.279 312.268 474.261C314.648 474.261 322.561 472.944 324.477 474.382C327.356 476.513 330.428 478.362 333.652 479.902C337.877 481.726 399.542 478.271 399.542 478.271C400.615 475.896 401.272 473.35 401.482 470.746C411.181 465.744 433.612 461.516 443.132 463.389C458.043 466.324 466.742 475.155 465.088 484.408C463.434 493.661 430.494 518.474 400.554 525.202Z" fill="#263238"/>
<path d="M400.554 525.202C400.554 525.202 381.788 520.153 366.461 509.643C351.133 499.134 339.162 486.933 317.801 489.457" stroke="white" stroke-width="1.10311" stroke-linecap="round" stroke-linejoin="round"/>
<path d="M362.95 507.167C372.637 504.34 379.741 497.974 387.512 491.873C395.708 485.196 404.51 479.323 413.799 474.333" stroke="white" stroke-width="1.10311" stroke-linecap="round" stroke-linejoin="round"/>
<path d="M359.535 304.476H362.379" stroke="#263238" stroke-width="1.10311" stroke-linecap="round" stroke-linejoin="round"/>
</svg>
