<?xml version="1.0" encoding="UTF-8"?>
<svg xmlns="http://www.w3.org/2000/svg" xmlns:xlink="http://www.w3.org/1999/xlink" width="240px" height="34px" viewBox="0 0 241 34" version="1.1">
<defs>
<clipPath id="clip1">
  <path d="M 0.351562 0 L 170 0 L 170 33 L 0.351562 33 Z M 0.351562 0 "/>
</clipPath>
<clipPath id="clip2">
  <path d="M 172 3 L 240.355469 3 L 240.355469 33.949219 L 172 33.949219 Z M 172 3 "/>
</clipPath>
</defs>
<g id="surface1">
<g clip-path="url(#clip1)" clip-rule="nonzero">
<path style=" stroke:none;fill-rule:nonzero;fill:rgb(100%,100%,100%);fill-opacity:1;" d="M 16.964844 32.542969 C 16.917969 32.566406 16.867188 32.578125 16.820312 32.578125 C 16.773438 32.578125 16.679688 32.578125 16.535156 32.578125 C 16.203125 32.578125 15.820312 32.527344 15.382812 32.421875 C 14.941406 32.3125 14.515625 32.183594 14.105469 32.03125 C 13.6875 31.875 13.332031 31.703125 13.035156 31.511719 C 12.738281 31.320312 12.554688 31.15625 12.480469 31.015625 C 12.457031 30.679688 12.445312 30.335938 12.445312 29.980469 C 12.445312 29.625 12.445312 29.28125 12.445312 28.949219 C 12.445312 26.292969 12.644531 23.515625 13.035156 20.621094 C 13.425781 17.726562 14.070312 14.59375 14.972656 11.226562 C 15.066406 10.894531 15.167969 10.472656 15.277344 9.960938 C 15.382812 9.453125 15.492188 8.902344 15.613281 8.308594 C 15.042969 8.757812 14.367188 9.476562 13.585938 10.457031 C 12.800781 11.445312 11.980469 12.605469 11.117188 13.945312 C 10.246094 15.289062 9.382812 16.757812 8.519531 18.359375 C 7.652344 19.960938 6.863281 21.585938 6.148438 23.234375 C 5.4375 24.886719 4.828125 26.519531 4.320312 28.132812 C 3.808594 29.746094 3.496094 31.238281 3.375 32.617188 C 2.238281 32.28125 1.449219 31.949219 1.015625 31.617188 C 0.574219 31.285156 0.351562 30.882812 0.351562 30.410156 C 0.351562 29.980469 0.484375 29.375 0.742188 28.59375 C 1.003906 27.8125 1.371094 26.886719 1.847656 25.816406 C 2.320312 24.75 2.902344 23.554688 3.589844 22.238281 C 4.277344 20.921875 5.035156 19.507812 5.867188 17.988281 C 6.8125 16.257812 7.746094 14.628906 8.660156 13.113281 C 9.570312 11.59375 10.464844 10.21875 11.34375 8.984375 C 12.222656 7.75 13.082031 6.683594 13.925781 5.78125 C 14.765625 4.878906 15.601562 4.191406 16.429688 3.714844 C 16.761719 3.714844 17.207031 3.800781 17.765625 3.964844 C 18.324219 4.132812 18.867188 4.332031 19.402344 4.570312 C 19.933594 4.808594 20.410156 5.050781 20.828125 5.296875 C 21.238281 5.546875 21.46875 5.757812 21.515625 5.921875 C 21.183594 6.585938 20.792969 7.585938 20.34375 8.914062 C 19.890625 10.242188 19.4375 11.746094 18.976562 13.433594 C 18.511719 15.117188 18.074219 16.902344 17.660156 18.785156 C 17.242188 20.675781 16.917969 22.484375 16.679688 24.214844 C 17.222656 22.910156 17.859375 21.550781 18.585938 20.136719 C 19.304688 18.726562 20.070312 17.328125 20.875 15.9375 C 21.683594 14.550781 22.507812 13.207031 23.351562 11.902344 C 24.191406 10.597656 25.015625 9.402344 25.820312 8.320312 C 26.625 7.246094 27.378906 6.304688 28.082031 5.496094 C 28.78125 4.6875 29.402344 4.097656 29.945312 3.714844 C 30.277344 3.714844 30.722656 3.800781 31.285156 3.964844 C 31.839844 4.132812 32.382812 4.332031 32.921875 4.570312 C 33.453125 4.808594 33.925781 5.050781 34.34375 5.296875 C 34.753906 5.546875 34.984375 5.757812 35.03125 5.921875 C 34.273438 7.277344 33.609375 8.925781 33.039062 10.871094 C 32.472656 12.816406 31.992188 14.855469 31.605469 16.992188 C 31.210938 19.125 30.914062 21.246094 30.714844 23.347656 C 30.511719 25.445312 30.410156 27.324219 30.410156 28.984375 C 30.410156 29.53125 30.410156 30.101562 30.410156 30.695312 C 30.410156 31.285156 30.433594 31.902344 30.480469 32.542969 C 30.148438 32.542969 29.753906 32.503906 29.292969 32.421875 C 28.828125 32.335938 28.375 32.222656 27.941406 32.082031 C 27.5 31.9375 27.101562 31.78125 26.746094 31.605469 C 26.390625 31.425781 26.140625 31.226562 26 31.015625 C 25.972656 30.679688 25.960938 30.335938 25.960938 29.980469 C 25.960938 29.625 25.960938 29.28125 25.960938 28.949219 C 25.960938 26.292969 26.160156 23.515625 26.554688 20.621094 C 26.941406 17.726562 27.585938 14.59375 28.488281 11.226562 C 28.582031 10.894531 28.691406 10.441406 28.808594 9.875 C 28.925781 9.304688 29.046875 8.710938 29.164062 8.09375 C 28.5 8.425781 27.75 9.058594 26.910156 9.996094 C 26.066406 10.933594 25.210938 12.074219 24.347656 13.410156 C 23.480469 14.753906 22.625 16.242188 21.785156 17.882812 C 20.941406 19.519531 20.183594 21.183594 19.511719 22.878906 C 18.832031 24.578125 18.261719 26.261719 17.804688 27.933594 C 17.339844 29.605469 17.058594 31.144531 16.964844 32.542969 Z M 39.835938 31.15625 C 38.484375 31.015625 37.402344 30.421875 36.597656 29.375 C 35.792969 28.332031 35.386719 27.003906 35.386719 25.390625 C 35.386719 24.441406 35.53125 23.457031 35.816406 22.4375 C 36.101562 21.417969 36.503906 20.425781 37.023438 19.460938 C 37.546875 18.503906 38.164062 17.597656 38.875 16.742188 C 39.585938 15.886719 40.355469 15.152344 41.1875 14.535156 C 42.492188 13.5625 43.710938 13.078125 44.851562 13.078125 C 45.609375 13.480469 46.355469 14.324219 47.089844 15.601562 C 47.210938 15.601562 47.316406 15.597656 47.410156 15.582031 C 47.507812 15.574219 47.613281 15.566406 47.730469 15.566406 C 48.988281 15.566406 49.617188 16.683594 49.617188 18.914062 C 49.617188 20.40625 49.371094 21.828125 48.882812 23.167969 C 48.398438 24.507812 47.722656 25.722656 46.855469 26.8125 C 45.992188 27.90625 44.960938 28.824219 43.761719 29.570312 C 42.566406 30.320312 41.257812 30.847656 39.835938 31.15625 Z M 41.648438 19.945312 C 41.246094 20.492188 40.867188 21.085938 40.511719 21.726562 C 40.15625 22.367188 39.847656 23.011719 39.585938 23.660156 C 39.324219 24.316406 39.125 24.945312 38.980469 25.546875 C 38.839844 26.15625 38.769531 26.695312 38.769531 27.171875 C 38.769531 27.738281 38.863281 28.285156 39.050781 28.808594 C 39.242188 29.328125 39.457031 29.625 39.691406 29.695312 C 40.757812 29.460938 41.738281 29.011719 42.625 28.359375 C 43.515625 27.707031 44.285156 26.898438 44.933594 25.925781 C 45.589844 24.953125 46.101562 23.847656 46.464844 22.613281 C 46.835938 21.382812 47.019531 20.0625 47.019531 18.664062 C 47.019531 18.046875 46.984375 17.5625 46.914062 17.203125 C 46.84375 16.847656 46.722656 16.539062 46.558594 16.28125 C 45.515625 16.589844 44.582031 17.085938 43.761719 17.773438 C 42.945312 18.460938 42.242188 19.1875 41.648438 19.945312 Z M 51.289062 29.304688 C 51.289062 28.476562 51.371094 27.496094 51.539062 26.367188 C 51.703125 25.242188 51.945312 24.039062 52.261719 22.757812 C 52.585938 21.476562 52.964844 20.136719 53.402344 18.734375 C 53.84375 17.335938 54.335938 15.9375 54.878906 14.535156 C 55.355469 13.277344 55.90625 12.007812 56.53125 10.726562 C 57.160156 9.445312 57.84375 8.1875 58.578125 6.957031 C 59.316406 5.722656 60.078125 4.546875 60.871094 3.433594 C 61.667969 2.316406 62.46875 1.296875 63.273438 0.371094 C 63.65625 0.371094 64.0625 0.417969 64.5 0.511719 C 64.941406 0.609375 65.367188 0.730469 65.78125 0.882812 C 66.195312 1.039062 66.574219 1.226562 66.917969 1.4375 C 67.265625 1.652344 67.542969 1.867188 67.757812 2.078125 C 65.980469 3.90625 64.378906 5.75 62.957031 7.609375 C 61.53125 9.476562 60.40625 11.226562 59.574219 12.863281 C 59.125 13.765625 58.714844 14.605469 58.34375 15.390625 C 57.980469 16.171875 57.644531 16.949219 57.335938 17.71875 C 57.027344 18.492188 56.746094 19.261719 56.496094 20.03125 C 56.25 20.804688 56.019531 21.617188 55.804688 22.472656 C 60.359375 16.660156 63.738281 13.753906 65.941406 13.753906 C 66.558594 13.753906 67.222656 13.953125 67.933594 14.359375 C 68.644531 14.761719 69.273438 15.308594 69.820312 15.996094 C 69.085938 16.800781 68.324219 17.773438 67.542969 18.914062 C 66.761719 20.050781 66.042969 21.195312 65.386719 22.34375 C 64.738281 23.496094 64.203125 24.566406 63.789062 25.546875 C 63.375 26.535156 63.167969 27.265625 63.167969 27.738281 C 63.167969 27.976562 63.203125 28.136719 63.273438 28.214844 C 63.347656 28.300781 63.5 28.34375 63.738281 28.34375 C 64.09375 28.34375 64.378906 28.296875 64.589844 28.203125 C 64.804688 28.105469 64.933594 28.058594 64.984375 28.058594 C 65.101562 28.25 65.171875 28.378906 65.195312 28.453125 C 65.21875 28.523438 65.230469 28.582031 65.230469 28.628906 C 65.230469 28.722656 65.089844 28.859375 64.804688 29.035156 C 64.519531 29.214844 64.179688 29.394531 63.789062 29.570312 C 63.398438 29.75 63.015625 29.910156 62.636719 30.054688 C 62.253906 30.195312 61.972656 30.265625 61.78125 30.265625 C 61.542969 30.265625 61.308594 30.203125 61.070312 30.074219 C 60.832031 29.941406 60.625 29.769531 60.445312 29.554688 C 60.269531 29.339844 60.125 29.105469 60.015625 28.84375 C 59.914062 28.582031 59.859375 28.308594 59.859375 28.023438 C 59.859375 27.667969 59.960938 27.140625 60.160156 26.4375 C 60.363281 25.738281 60.644531 24.921875 61 23.980469 C 61.355469 23.046875 61.78125 22.023438 62.28125 20.90625 C 62.777344 19.792969 63.3125 18.652344 63.878906 17.488281 C 63.878906 17.394531 63.832031 17.347656 63.738281 17.347656 C 63.667969 17.347656 63.480469 17.441406 63.183594 17.632812 C 62.890625 17.820312 62.609375 18.011719 62.351562 18.203125 C 61.496094 18.84375 60.636719 19.628906 59.769531 20.566406 C 58.90625 21.503906 58.0625 22.53125 57.242188 23.648438 C 56.425781 24.761719 55.65625 25.941406 54.929688 27.183594 C 54.210938 28.433594 53.589844 29.683594 53.066406 30.941406 C 52.996094 31.109375 52.890625 31.261719 52.746094 31.40625 C 52.605469 31.546875 52.484375 31.617188 52.390625 31.617188 C 52.320312 31.617188 52.21875 31.535156 52.085938 31.371094 C 51.957031 31.203125 51.839844 30.996094 51.730469 30.75 C 51.625 30.5 51.527344 30.242188 51.429688 29.980469 C 51.335938 29.722656 51.289062 29.496094 51.289062 29.304688 Z M 81.976562 15.53125 C 82.214844 15.53125 82.496094 15.574219 82.816406 15.652344 C 83.136719 15.738281 83.425781 15.84375 83.683594 15.972656 C 83.945312 16.105469 84.167969 16.242188 84.347656 16.386719 C 84.523438 16.527344 84.609375 16.660156 84.609375 16.777344 C 84.136719 17.773438 83.695312 18.777344 83.292969 19.78125 C 82.890625 20.792969 82.546875 21.761719 82.261719 22.6875 C 81.976562 23.609375 81.757812 24.476562 81.609375 25.285156 C 81.453125 26.089844 81.375 26.789062 81.375 27.382812 C 81.375 28.046875 81.445312 28.597656 81.585938 29.035156 C 81.730469 29.476562 81.964844 29.792969 82.296875 29.980469 C 82.011719 30.171875 81.644531 30.324219 81.195312 30.445312 C 80.746094 30.5625 80.339844 30.621094 79.984375 30.621094 C 78.707031 30.621094 78.066406 29.746094 78.066406 27.988281 C 78.066406 26.636719 78.515625 24.785156 79.417969 22.4375 C 78.941406 23.527344 78.398438 24.554688 77.78125 25.511719 C 77.164062 26.476562 76.535156 27.324219 75.894531 28.058594 C 75.253906 28.796875 74.609375 29.394531 73.960938 29.855469 C 73.304688 30.320312 72.707031 30.597656 72.160156 30.695312 C 71.28125 30.644531 70.570312 30.222656 70.027344 29.425781 C 69.480469 28.632812 69.207031 27.621094 69.207031 26.386719 C 69.207031 25.058594 69.492188 23.660156 70.0625 22.1875 C 70.632812 20.714844 71.363281 19.351562 72.253906 18.09375 C 73.140625 16.835938 74.105469 15.785156 75.148438 14.941406 C 76.191406 14.101562 77.199219 13.65625 78.171875 13.609375 C 78.410156 13.683594 78.675781 13.824219 78.976562 14.039062 C 79.269531 14.25 79.554688 14.5 79.828125 14.785156 C 80.101562 15.070312 80.328125 15.359375 80.519531 15.652344 C 80.710938 15.953125 80.816406 16.207031 80.839844 16.421875 C 79.890625 16.5625 78.914062 17.027344 77.910156 17.808594 C 76.898438 18.59375 75.984375 19.535156 75.167969 20.636719 C 74.347656 21.742188 73.679688 22.921875 73.15625 24.179688 C 72.636719 25.4375 72.375 26.613281 72.375 27.703125 C 72.375 28.15625 72.539062 28.441406 72.871094 28.558594 C 73.558594 28.414062 74.355469 27.828125 75.253906 26.792969 C 76.15625 25.761719 77.246094 24.167969 78.527344 22.007812 C 78.765625 21.582031 79.03125 21.109375 79.332031 20.585938 C 79.625 20.0625 79.925781 19.519531 80.234375 18.949219 C 80.542969 18.378906 80.847656 17.804688 81.144531 17.226562 C 81.441406 16.644531 81.71875 16.078125 81.976562 15.53125 Z M 106.984375 18.984375 C 106.605469 19.007812 106.140625 19.25 105.597656 19.710938 C 105.050781 20.175781 104.460938 20.769531 103.832031 21.488281 C 103.207031 22.214844 102.554688 23.019531 101.875 23.894531 C 101.203125 24.773438 100.550781 25.644531 99.917969 26.507812 C 99.292969 27.375 98.707031 28.191406 98.160156 28.949219 C 97.617188 29.707031 97.152344 30.3125 96.773438 30.765625 C 96.253906 30.550781 95.800781 30.234375 95.421875 29.816406 C 95.042969 29.40625 94.769531 28.890625 94.605469 28.273438 C 94.722656 27.539062 94.890625 26.773438 95.101562 25.972656 C 95.316406 25.183594 95.597656 24.359375 95.941406 23.503906 C 96.285156 22.648438 96.710938 21.753906 97.222656 20.8125 C 97.730469 19.878906 98.351562 18.890625 99.085938 17.84375 C 98.730469 17.871094 98.246094 18.125 97.628906 18.605469 C 97.011719 19.097656 96.347656 19.726562 95.636719 20.492188 C 94.925781 21.265625 94.191406 22.132812 93.429688 23.089844 C 92.671875 24.054688 91.960938 25 91.296875 25.925781 C 90.417969 27.160156 89.691406 28.238281 89.113281 29.164062 C 88.53125 30.089844 88.109375 30.632812 87.847656 30.800781 C 87.230469 30.347656 86.804688 29.863281 86.566406 29.339844 C 86.328125 28.820312 86.152344 28.238281 86.03125 27.597656 C 86.054688 27.027344 86.148438 26.316406 86.304688 25.460938 C 86.453125 24.609375 86.671875 23.730469 86.957031 22.828125 C 87.503906 21.097656 88.210938 19.375 89.078125 17.667969 C 89.941406 15.960938 90.773438 14.394531 91.582031 12.96875 C 92.246094 13.113281 92.84375 13.335938 93.382812 13.644531 C 93.914062 13.953125 94.476562 14.40625 95.066406 15 C 94.832031 15.734375 94.460938 16.511719 93.964844 17.324219 C 93.46875 18.148438 92.945312 19.007812 92.398438 19.910156 C 91.855469 20.8125 91.355469 21.738281 90.90625 22.6875 C 90.457031 23.636719 90.160156 24.597656 90.015625 25.570312 C 90.679688 24.621094 91.46875 23.527344 92.386719 22.292969 C 93.296875 21.0625 94.234375 19.898438 95.195312 18.804688 C 96.152344 17.714844 97.105469 16.789062 98.054688 16.03125 C 99.003906 15.269531 99.859375 14.890625 100.617188 14.890625 C 100.902344 14.890625 101.210938 14.9375 101.542969 15.035156 C 101.875 15.128906 102.179688 15.246094 102.464844 15.390625 C 102.75 15.53125 102.988281 15.667969 103.175781 15.796875 C 103.367188 15.929688 103.472656 16.03125 103.496094 16.101562 C 103.378906 16.578125 103.101562 17.222656 102.664062 18.039062 C 102.222656 18.859375 101.753906 19.71875 101.257812 20.621094 C 100.757812 21.523438 100.296875 22.394531 99.871094 23.234375 C 99.441406 24.078125 99.195312 24.75 99.121094 25.25 C 100.285156 23.660156 101.375 22.214844 102.394531 20.921875 C 103.414062 19.628906 104.375 18.523438 105.277344 17.597656 C 106.175781 16.671875 107.015625 15.960938 107.789062 15.460938 C 108.554688 14.964844 109.285156 14.714844 109.972656 14.714844 C 110.445312 14.714844 110.890625 14.835938 111.300781 15.082031 C 111.71875 15.335938 112.011719 15.699219 112.175781 16.171875 C 111.964844 16.882812 111.613281 17.738281 111.125 18.734375 C 110.640625 19.730469 110.148438 20.78125 109.652344 21.882812 C 109.152344 22.988281 108.710938 24.074219 108.320312 25.140625 C 107.925781 26.210938 107.730469 27.171875 107.730469 28.023438 C 107.730469 28.523438 107.800781 28.847656 107.945312 29 C 108.085938 29.15625 108.289062 29.234375 108.546875 29.234375 C 108.832031 29.234375 109.097656 29.179688 109.34375 29.070312 C 109.597656 28.964844 109.78125 28.914062 109.898438 28.914062 C 110.042969 29.007812 110.125 29.128906 110.148438 29.269531 C 110.171875 29.414062 110.183594 29.542969 110.183594 29.660156 C 109.710938 30.042969 109.222656 30.355469 108.726562 30.609375 C 108.226562 30.855469 107.671875 30.976562 107.054688 30.976562 C 106.484375 30.976562 106.019531 30.882812 105.652344 30.695312 C 105.28125 30.503906 104.980469 30.242188 104.742188 29.910156 C 104.503906 29.578125 104.339844 29.199219 104.246094 28.773438 C 104.148438 28.34375 104.101562 27.882812 104.101562 27.382812 C 104.101562 26.578125 104.207031 25.773438 104.421875 24.976562 C 104.636719 24.183594 104.890625 23.425781 105.191406 22.699219 C 105.484375 21.980469 105.796875 21.300781 106.128906 20.671875 C 106.460938 20.046875 106.746094 19.484375 106.984375 18.984375 Z M 134.195312 18.984375 C 133.816406 19.007812 133.351562 19.25 132.808594 19.710938 C 132.261719 20.175781 131.671875 20.769531 131.042969 21.488281 C 130.417969 22.214844 129.765625 23.019531 129.085938 23.894531 C 128.414062 24.773438 127.761719 25.644531 127.128906 26.507812 C 126.503906 27.375 125.917969 28.191406 125.371094 28.949219 C 124.828125 29.707031 124.363281 30.3125 123.984375 30.765625 C 123.464844 30.550781 123.011719 30.234375 122.632812 29.816406 C 122.253906 29.40625 121.980469 28.890625 121.816406 28.273438 C 121.933594 27.539062 122.101562 26.773438 122.3125 25.972656 C 122.527344 25.183594 122.804688 24.359375 123.144531 23.503906 C 123.492188 22.648438 123.917969 21.753906 124.425781 20.8125 C 124.9375 19.878906 125.5625 18.890625 126.296875 17.84375 C 125.941406 17.871094 125.457031 18.125 124.839844 18.605469 C 124.222656 19.097656 123.558594 19.726562 122.847656 20.492188 C 122.136719 21.265625 121.402344 22.132812 120.640625 23.089844 C 119.882812 24.054688 119.171875 25 118.507812 25.925781 C 117.628906 27.160156 116.898438 28.238281 116.316406 29.164062 C 115.738281 30.089844 115.320312 30.632812 115.058594 30.800781 C 114.441406 30.347656 114.015625 29.863281 113.777344 29.339844 C 113.539062 28.820312 113.363281 28.238281 113.242188 27.597656 C 113.265625 27.027344 113.355469 26.316406 113.507812 25.460938 C 113.664062 24.609375 113.882812 23.730469 114.167969 22.828125 C 114.714844 21.097656 115.417969 19.375 116.28125 17.667969 C 117.148438 15.960938 117.984375 14.394531 118.792969 12.96875 C 119.457031 13.113281 120.054688 13.335938 120.585938 13.644531 C 121.121094 13.953125 121.683594 14.40625 122.277344 15 C 122.042969 15.734375 121.671875 16.511719 121.175781 17.324219 C 120.675781 18.148438 120.15625 19.007812 119.609375 19.910156 C 119.066406 20.8125 118.566406 21.738281 118.117188 22.6875 C 117.667969 23.636719 117.371094 24.597656 117.226562 25.570312 C 117.890625 24.621094 118.679688 23.527344 119.589844 22.292969 C 120.503906 21.0625 121.441406 19.898438 122.398438 18.804688 C 123.363281 17.714844 124.316406 16.789062 125.265625 16.03125 C 126.214844 15.269531 127.066406 14.890625 127.828125 14.890625 C 128.113281 14.890625 128.421875 14.9375 128.75 15.035156 C 129.082031 15.128906 129.390625 15.246094 129.675781 15.390625 C 129.960938 15.53125 130.199219 15.667969 130.386719 15.796875 C 130.578125 15.929688 130.683594 16.03125 130.707031 16.101562 C 130.589844 16.578125 130.308594 17.222656 129.867188 18.039062 C 129.433594 18.859375 128.964844 19.71875 128.46875 20.621094 C 127.96875 21.523438 127.507812 22.394531 127.082031 23.234375 C 126.652344 24.078125 126.40625 24.75 126.332031 25.25 C 127.496094 23.660156 128.585938 22.214844 129.605469 20.921875 C 130.625 19.628906 131.585938 18.523438 132.488281 17.597656 C 133.386719 16.671875 134.222656 15.960938 134.992188 15.460938 C 135.765625 14.964844 136.496094 14.714844 137.183594 14.714844 C 137.65625 14.714844 138.101562 14.835938 138.511719 15.082031 C 138.929688 15.335938 139.222656 15.699219 139.386719 16.171875 C 139.175781 16.882812 138.824219 17.738281 138.335938 18.734375 C 137.851562 19.730469 137.359375 20.78125 136.863281 21.882812 C 136.363281 22.988281 135.917969 24.074219 135.523438 25.140625 C 135.136719 26.210938 134.941406 27.171875 134.941406 28.023438 C 134.941406 28.523438 135.011719 28.847656 135.15625 29 C 135.296875 29.15625 135.5 29.234375 135.757812 29.234375 C 136.042969 29.234375 136.308594 29.179688 136.554688 29.070312 C 136.808594 28.964844 136.992188 28.914062 137.109375 28.914062 C 137.253906 29.007812 137.335938 29.128906 137.359375 29.269531 C 137.382812 29.414062 137.394531 29.542969 137.394531 29.660156 C 136.921875 30.042969 136.433594 30.355469 135.9375 30.609375 C 135.4375 30.855469 134.882812 30.976562 134.265625 30.976562 C 133.695312 30.976562 133.226562 30.882812 132.855469 30.695312 C 132.492188 30.503906 132.191406 30.242188 131.953125 29.910156 C 131.714844 29.578125 131.550781 29.199219 131.457031 28.773438 C 131.359375 28.34375 131.3125 27.882812 131.3125 27.382812 C 131.3125 26.578125 131.417969 25.773438 131.632812 24.976562 C 131.847656 24.183594 132.101562 23.425781 132.394531 22.699219 C 132.691406 21.980469 133.007812 21.300781 133.339844 20.671875 C 133.671875 20.046875 133.957031 19.484375 134.195312 18.984375 Z M 153.578125 15.175781 C 153.484375 16.648438 153.222656 17.910156 152.796875 18.964844 C 152.371094 20.019531 151.757812 20.945312 150.960938 21.738281 C 150.167969 22.535156 149.203125 23.253906 148.066406 23.894531 C 146.929688 24.535156 145.601562 25.152344 144.082031 25.746094 C 144.082031 25.890625 144.074219 26.035156 144.0625 26.1875 C 144.050781 26.34375 144.046875 26.503906 144.046875 26.671875 C 144.046875 26.980469 144.070312 27.300781 144.117188 27.632812 C 144.164062 27.964844 144.25 28.273438 144.367188 28.558594 C 144.484375 28.84375 144.652344 29.074219 144.863281 29.25 C 145.078125 29.429688 145.351562 29.519531 145.683594 29.519531 C 146.324219 29.519531 146.953125 29.375 147.566406 29.09375 C 148.183594 28.808594 148.769531 28.457031 149.324219 28.039062 C 149.886719 27.625 150.40625 27.175781 150.890625 26.6875 C 151.378906 26.203125 151.8125 25.757812 152.191406 25.355469 C 152.429688 25.570312 152.632812 25.769531 152.796875 25.960938 C 151.730469 27.382812 150.5625 28.5625 149.289062 29.496094 C 148.023438 30.4375 146.820312 31.039062 145.683594 31.296875 C 144.046875 31.109375 142.769531 30.507812 141.855469 29.496094 C 140.945312 28.492188 140.488281 27.277344 140.488281 25.851562 C 140.488281 24.878906 140.625 23.890625 140.894531 22.878906 C 141.171875 21.871094 141.550781 20.898438 142.035156 19.960938 C 142.523438 19.023438 143.089844 18.140625 143.742188 17.3125 C 144.394531 16.480469 145.09375 15.757812 145.839844 15.140625 C 146.589844 14.523438 147.359375 14.039062 148.152344 13.683594 C 148.949219 13.324219 149.738281 13.148438 150.519531 13.148438 C 151.613281 13.289062 152.632812 13.964844 153.578125 15.175781 Z M 151.125 16.351562 C 150.484375 16.445312 149.820312 16.707031 149.132812 17.132812 C 148.445312 17.5625 147.796875 18.128906 147.191406 18.84375 C 146.589844 19.554688 146.039062 20.382812 145.539062 21.332031 C 145.042969 22.28125 144.652344 23.300781 144.367188 24.394531 C 146.265625 23.445312 147.839844 22.273438 149.097656 20.886719 C 150.355469 19.5 151.03125 17.988281 151.125 16.351562 Z M 162.960938 13.289062 C 163.4375 13.289062 163.984375 13.433594 164.597656 13.71875 C 165.214844 14.003906 165.761719 14.371094 166.234375 14.820312 C 166.117188 13.871094 165.96875 12.976562 165.792969 12.128906 C 165.613281 11.289062 165.351562 10.417969 165.011719 9.519531 C 164.664062 8.617188 164.207031 7.632812 163.640625 6.5625 C 163.070312 5.496094 162.359375 4.273438 161.503906 2.898438 C 161.574219 2.683594 161.738281 2.433594 161.988281 2.152344 C 162.234375 1.867188 162.519531 1.597656 162.84375 1.347656 C 163.160156 1.097656 163.492188 0.882812 163.839844 0.691406 C 164.179688 0.5 164.503906 0.382812 164.8125 0.335938 C 165.476562 1.070312 166.105469 1.988281 166.699219 3.089844 C 167.289062 4.195312 167.8125 5.382812 168.261719 6.648438 C 168.714844 7.921875 169.0625 9.234375 169.316406 10.585938 C 169.5625 11.9375 169.6875 13.230469 169.6875 14.464844 C 169.6875 15.699219 169.550781 16.96875 169.28125 18.273438 C 169.003906 19.578125 168.625 20.851562 168.140625 22.09375 C 167.652344 23.34375 167.089844 24.523438 166.449219 25.640625 C 165.808594 26.753906 165.117188 27.75 164.371094 28.628906 C 163.621094 29.507812 162.84375 30.226562 162.039062 30.785156 C 161.230469 31.339844 160.425781 31.691406 159.621094 31.832031 C 157.984375 31.640625 156.734375 31.117188 155.871094 30.253906 C 155.003906 29.382812 154.570312 28.191406 154.570312 26.671875 C 154.570312 25.863281 154.695312 24.988281 154.945312 24.039062 C 155.191406 23.089844 155.523438 22.144531 155.941406 21.207031 C 156.355469 20.269531 156.839844 19.359375 157.398438 18.472656 C 157.953125 17.578125 158.546875 16.777344 159.179688 16.066406 C 159.804688 15.355469 160.4375 14.75 161.078125 14.25 C 161.71875 13.753906 162.347656 13.433594 162.960938 13.289062 Z M 159.335938 30.410156 C 160.164062 30.125 160.996094 29.496094 161.824219 28.523438 C 162.65625 27.550781 163.402344 26.402344 164.066406 25.085938 C 164.730469 23.769531 165.269531 22.359375 165.6875 20.847656 C 166.101562 19.34375 166.304688 17.894531 166.304688 16.492188 C 166.304688 16.089844 166.304688 15.839844 166.304688 15.746094 C 166.304688 15.652344 166.292969 15.554688 166.269531 15.460938 C 165.703125 15.699219 165.097656 16.101562 164.457031 16.671875 C 163.816406 17.242188 163.175781 17.898438 162.535156 18.644531 C 161.894531 19.394531 161.292969 20.207031 160.722656 21.085938 C 160.152344 21.960938 159.644531 22.839844 159.191406 23.71875 C 158.742188 24.597656 158.386719 25.4375 158.125 26.246094 C 157.863281 27.050781 157.734375 27.761719 157.734375 28.378906 C 157.734375 29.566406 158.269531 30.242188 159.335938 30.410156 Z M 159.335938 30.410156 "/>
</g>
<g clip-path="url(#clip2)" clip-rule="nonzero">
<path style=" stroke:none;fill-rule:nonzero;fill:rgb(100%,100%,100%);fill-opacity:1;" d="M 176.445312 32.617188 C 175.09375 32.210938 174.179688 31.828125 173.703125 31.460938 C 173.230469 31.09375 172.992188 30.585938 172.992188 29.945312 C 172.992188 29.234375 173.160156 28.234375 173.492188 26.941406 C 173.824219 25.648438 174.257812 24.203125 174.792969 22.613281 C 175.324219 21.023438 175.933594 19.363281 176.621094 17.632812 C 177.308594 15.898438 178.007812 14.238281 178.71875 12.648438 C 179.433594 11.058594 180.125 9.605469 180.804688 8.285156 C 181.476562 6.972656 182.074219 5.945312 182.597656 5.210938 L 182.347656 3.714844 C 182.679688 3.714844 183.144531 3.800781 183.734375 3.964844 C 184.328125 4.132812 184.929688 4.332031 185.535156 4.570312 C 186.136719 4.808594 186.671875 5.050781 187.136719 5.296875 C 187.597656 5.546875 187.851562 5.757812 187.898438 5.921875 C 187.777344 6.492188 187.683594 7.351562 187.613281 8.5 C 187.542969 9.652344 187.507812 10.882812 187.507812 12.1875 C 187.507812 14.773438 187.609375 17.304688 187.8125 19.78125 C 188.011719 22.261719 188.476562 24.785156 189.214844 27.347656 C 189.59375 25.449219 190.003906 23.554688 190.445312 21.667969 C 190.878906 19.785156 191.335938 17.980469 191.808594 16.257812 C 192.285156 14.539062 192.757812 12.945312 193.234375 11.476562 C 193.707031 10.003906 194.164062 8.714844 194.597656 7.609375 C 195.039062 6.507812 195.449219 5.644531 195.828125 5.011719 C 196.207031 4.386719 196.550781 4.046875 196.859375 4 C 197.121094 4.046875 197.40625 4.148438 197.714844 4.300781 C 198.023438 4.457031 198.320312 4.640625 198.605469 4.855469 C 198.886719 5.070312 199.148438 5.304688 199.386719 5.566406 C 199.625 5.828125 199.8125 6.089844 199.957031 6.351562 C 199.195312 6.660156 198.445312 7.382812 197.699219 8.519531 C 196.949219 9.660156 196.238281 11.039062 195.566406 12.664062 C 194.886719 14.292969 194.257812 16.054688 193.679688 17.953125 C 193.097656 19.851562 192.585938 21.71875 192.152344 23.554688 C 191.710938 25.394531 191.367188 27.097656 191.121094 28.664062 C 190.867188 30.230469 190.730469 31.488281 190.707031 32.4375 C 190.707031 32.484375 190.71875 32.519531 190.742188 32.542969 C 190.671875 32.566406 190.597656 32.578125 190.515625 32.578125 C 190.429688 32.578125 190.351562 32.578125 190.28125 32.578125 C 189.191406 32.578125 188.222656 32.445312 187.386719 32.175781 C 186.539062 31.898438 185.988281 31.511719 185.726562 31.015625 C 185.230469 29.019531 184.816406 27.097656 184.484375 25.25 C 184.152344 23.398438 183.875 21.546875 183.648438 19.695312 C 183.421875 17.84375 183.246094 15.976562 183.117188 14.085938 C 182.984375 12.203125 182.882812 10.230469 182.8125 8.164062 C 182.359375 8.878906 181.886719 9.808594 181.386719 10.957031 C 180.890625 12.109375 180.402344 13.375 179.929688 14.75 C 179.457031 16.125 179 17.574219 178.5625 19.089844 C 178.121094 20.609375 177.734375 22.09375 177.402344 23.539062 C 177.070312 24.988281 176.8125 26.355469 176.621094 27.648438 C 176.433594 28.941406 176.335938 30.066406 176.335938 31.015625 C 176.335938 31.511719 176.34375 31.867188 176.359375 32.082031 C 176.367188 32.296875 176.394531 32.472656 176.445312 32.617188 Z M 209.703125 15.53125 C 209.9375 15.53125 210.214844 15.574219 210.535156 15.652344 C 210.855469 15.738281 211.148438 15.84375 211.410156 15.972656 C 211.667969 16.105469 211.886719 16.242188 212.0625 16.386719 C 212.242188 16.527344 212.332031 16.660156 212.332031 16.777344 C 211.859375 17.773438 211.421875 18.777344 211.015625 19.78125 C 210.613281 20.792969 210.269531 21.761719 209.984375 22.6875 C 209.703125 23.609375 209.480469 24.476562 209.324219 25.285156 C 209.171875 26.089844 209.097656 26.789062 209.097656 27.382812 C 209.097656 28.046875 209.167969 28.597656 209.308594 29.035156 C 209.453125 29.476562 209.691406 29.792969 210.023438 29.980469 C 209.738281 30.171875 209.371094 30.324219 208.917969 30.445312 C 208.46875 30.5625 208.066406 30.621094 207.710938 30.621094 C 206.429688 30.621094 205.789062 29.746094 205.789062 27.988281 C 205.789062 26.636719 206.238281 24.785156 207.140625 22.4375 C 206.667969 23.527344 206.121094 24.554688 205.503906 25.511719 C 204.886719 26.476562 204.257812 27.324219 203.617188 28.058594 C 202.980469 28.796875 202.332031 29.394531 201.675781 29.855469 C 201.027344 30.320312 200.429688 30.597656 199.882812 30.695312 C 199.007812 30.644531 198.296875 30.222656 197.75 29.425781 C 197.203125 28.632812 196.933594 27.621094 196.933594 26.386719 C 196.933594 25.058594 197.214844 23.660156 197.785156 22.1875 C 198.355469 20.714844 199.082031 19.351562 199.96875 18.09375 C 200.859375 16.835938 201.828125 15.785156 202.871094 14.941406 C 203.914062 14.101562 204.921875 13.65625 205.894531 13.609375 C 206.132812 13.683594 206.398438 13.824219 206.691406 14.039062 C 206.992188 14.25 207.277344 14.5 207.546875 14.785156 C 207.820312 15.070312 208.054688 15.359375 208.242188 15.652344 C 208.433594 15.953125 208.539062 16.207031 208.5625 16.421875 C 207.613281 16.5625 206.636719 17.027344 205.625 17.808594 C 204.621094 18.59375 203.707031 19.535156 202.886719 20.636719 C 202.070312 21.742188 201.402344 22.921875 200.878906 24.179688 C 200.359375 25.4375 200.097656 26.613281 200.097656 27.703125 C 200.097656 28.15625 200.261719 28.441406 200.59375 28.558594 C 201.285156 28.414062 202.078125 27.828125 202.980469 26.792969 C 203.878906 25.761719 204.96875 24.167969 206.25 22.007812 C 206.488281 21.582031 206.753906 21.109375 207.046875 20.585938 C 207.347656 20.0625 207.648438 19.519531 207.957031 18.949219 C 208.265625 18.378906 208.566406 17.804688 208.863281 17.226562 C 209.160156 16.644531 209.441406 16.078125 209.703125 15.53125 Z M 226.417969 15.746094 C 226.394531 16.195312 226.316406 16.664062 226.183594 17.148438 C 226.054688 17.636719 225.898438 18.078125 225.707031 18.472656 C 225.511719 18.859375 225.3125 19.1875 225.101562 19.445312 C 224.890625 19.707031 224.6875 19.839844 224.5 19.839844 C 224.238281 19.816406 224.082031 19.636719 224.035156 19.304688 C 224.035156 19.234375 224.066406 19.121094 224.121094 18.964844 C 224.183594 18.8125 224.25 18.640625 224.320312 18.449219 C 224.390625 18.261719 224.457031 18.070312 224.511719 17.882812 C 224.574219 17.691406 224.605469 17.523438 224.605469 17.382812 C 224.605469 17.050781 224.527344 16.769531 224.371094 16.542969 C 224.21875 16.320312 224.011719 16.207031 223.75 16.207031 C 222.804688 16.207031 222.078125 16.800781 221.582031 17.988281 C 221.082031 19.175781 220.835938 20.917969 220.835938 23.21875 C 220.835938 23.457031 220.847656 23.597656 220.871094 23.648438 C 221.367188 23.621094 221.8125 23.605469 222.199219 23.589844 C 222.59375 23.582031 222.980469 23.574219 223.359375 23.574219 C 223.382812 23.621094 223.394531 23.71875 223.394531 23.859375 C 223.394531 24.074219 223.347656 24.226562 223.253906 24.324219 C 222.707031 24.441406 222.273438 24.542969 221.953125 24.621094 C 221.632812 24.707031 221.390625 24.785156 221.226562 24.855469 C 221.054688 24.929688 220.953125 25.003906 220.921875 25.085938 C 220.886719 25.171875 220.871094 25.285156 220.871094 25.425781 C 220.871094 25.617188 220.875 25.804688 220.882812 25.996094 C 220.898438 26.183594 220.90625 26.421875 220.90625 26.707031 C 220.90625 28.699219 220.367188 30.300781 219.285156 31.511719 C 218.207031 32.722656 216.707031 33.421875 214.789062 33.613281 C 214.457031 33.589844 214.113281 33.492188 213.757812 33.328125 C 213.402344 33.160156 213.0625 32.949219 212.738281 32.6875 C 212.421875 32.425781 212.144531 32.136719 211.90625 31.816406 C 211.667969 31.496094 211.503906 31.167969 211.410156 30.835938 C 211.410156 29.933594 211.597656 29.074219 211.976562 28.253906 C 212.355469 27.4375 212.871094 26.710938 213.523438 26.082031 C 214.175781 25.453125 214.945312 24.945312 215.832031 24.550781 C 216.726562 24.160156 217.691406 23.929688 218.734375 23.859375 C 218.734375 23.265625 218.675781 22.6875 218.558594 22.117188 C 218.441406 21.546875 218.3125 20.996094 218.179688 20.457031 C 218.054688 19.925781 217.929688 19.40625 217.8125 18.890625 C 217.691406 18.382812 217.632812 17.882812 217.632812 17.382812 C 217.632812 16.742188 217.765625 16.105469 218.023438 15.476562 C 218.285156 14.847656 218.628906 14.269531 219.054688 13.730469 C 219.484375 13.199219 219.980469 12.746094 220.550781 12.363281 C 221.121094 11.984375 221.710938 11.722656 222.328125 11.582031 C 222.589844 11.652344 222.9375 11.859375 223.375 12.199219 C 223.816406 12.546875 224.25 12.933594 224.675781 13.363281 C 225.101562 13.789062 225.484375 14.21875 225.816406 14.65625 C 226.140625 15.097656 226.34375 15.460938 226.417969 15.746094 Z M 214.679688 31.976562 C 215.25 31.738281 215.789062 31.394531 216.296875 30.941406 C 216.804688 30.492188 217.25 29.980469 217.632812 29.414062 C 218.011719 28.84375 218.3125 28.238281 218.535156 27.597656 C 218.765625 26.957031 218.878906 26.328125 218.878906 25.710938 C 218.402344 25.78125 217.882812 26 217.3125 26.367188 C 216.746094 26.734375 216.210938 27.175781 215.710938 27.683594 C 215.214844 28.195312 214.800781 28.722656 214.46875 29.269531 C 214.136719 29.816406 213.96875 30.289062 213.96875 30.695312 C 213.96875 31.214844 214.207031 31.640625 214.679688 31.976562 Z M 225.59375 29.199219 C 225.710938 28.511719 225.921875 27.601562 226.21875 26.472656 C 226.515625 25.347656 226.863281 24.148438 227.265625 22.878906 C 227.667969 21.609375 228.097656 20.335938 228.546875 19.054688 C 228.996094 17.773438 229.433594 16.625 229.863281 15.601562 C 230.171875 14.867188 230.441406 14.292969 230.679688 13.875 C 230.917969 13.460938 231.179688 13.113281 231.464844 12.828125 C 231.796875 12.875 232.140625 12.957031 232.496094 13.078125 C 232.851562 13.195312 233.195312 13.335938 233.527344 13.503906 C 233.859375 13.667969 234.15625 13.839844 234.414062 14.015625 C 234.675781 14.195312 234.878906 14.371094 235.019531 14.535156 C 234.378906 15.296875 233.816406 16.160156 233.332031 17.132812 C 232.84375 18.105469 232.351562 19.351562 231.855469 20.871094 C 233.136719 19.730469 234.269531 18.640625 235.253906 17.597656 C 236.238281 16.550781 237.152344 15.390625 238.007812 14.109375 C 238.148438 13.988281 238.398438 13.929688 238.753906 13.929688 C 239.085938 13.929688 239.40625 13.984375 239.714844 14.085938 C 240.023438 14.195312 240.238281 14.347656 240.355469 14.535156 C 239.929688 15.675781 239.714844 16.800781 239.714844 17.917969 C 239.714844 18.960938 239.871094 19.742188 240.175781 20.265625 C 240.152344 20.40625 239.996094 20.679688 239.699219 21.085938 C 239.402344 21.488281 239.074219 21.867188 238.71875 22.222656 C 238.078125 21.890625 237.511719 21.433594 237.011719 20.847656 C 236.515625 20.269531 236.144531 19.636719 235.910156 18.949219 C 234.792969 19.730469 233.847656 20.496094 233.0625 21.242188 C 232.28125 21.992188 231.613281 22.820312 231.058594 23.730469 C 230.496094 24.648438 230.023438 25.699219 229.632812 26.886719 C 229.242188 28.070312 228.867188 29.484375 228.511719 31.121094 C 228.296875 31.097656 228.042969 31.019531 227.75 30.894531 C 227.449219 30.761719 227.15625 30.597656 226.859375 30.410156 C 226.5625 30.21875 226.292969 30.015625 226.054688 29.804688 C 225.820312 29.589844 225.664062 29.386719 225.59375 29.199219 Z M 225.59375 29.199219 "/>
</g>
</g>
</svg>
